<svg width="325" height="70" viewBox="0 0 325 70" fill="none" xmlns="http://www.w3.org/2000/svg">
<rect width="325" height="70" fill="white"/>
<path fill-rule="evenodd" clip-rule="evenodd" d="M38.7432 51.2484L35.1152 48.6507V42.9968H51.0448L51.3145 42.9946L51.5727 42.99L51.817 42.9832L52.0475 42.9763L52.2665 42.9672L52.4739 42.9558L52.6675 42.9444L52.8473 42.9307L53.0156 42.9147L53.1723 42.8988L53.3152 42.8805L53.4443 42.86L53.5619 42.8372L53.6656 42.8144L53.7555 42.7893L53.9952 42.7163L54.2188 42.6319L54.4262 42.5361L54.6198 42.4312L54.7973 42.3149L54.9587 42.1872L55.1062 42.0481L55.2376 41.8975L55.3528 41.7356L55.4519 41.5646L55.5372 41.3821L55.6064 41.1882L55.6594 40.983L55.6986 40.7663L55.7216 40.5382L55.7285 40.3011L55.7239 40.1186L55.7101 39.9407L55.6893 39.7651L55.6594 39.594L55.6225 39.4275L55.5764 39.2656L55.5211 39.1082L55.4565 38.9554L55.3851 38.8072L55.3044 38.6612L55.2145 38.5198L55.1154 38.383L55.0094 38.2507L54.8941 38.123L54.772 37.9998L54.6406 37.879L54.5346 37.7946L54.4216 37.7125L58.0519 40.3102L58.1649 40.3946L58.2709 40.4767L58.4023 40.5975L58.5268 40.723L58.642 40.8507L58.748 40.983L58.8471 41.1198L58.937 41.2612L59.0177 41.4049L59.0915 41.5554L59.156 41.7082L59.2113 41.8656L59.2574 42.0276L59.2966 42.194L59.3266 42.3651L59.3473 42.5384L59.3611 42.7163L59.3658 42.8988L59.3588 43.1383L59.3358 43.3663L59.2966 43.583L59.2436 43.7882L59.1744 43.9821L59.0892 44.1646L58.9901 44.3379L58.8748 44.4975L58.7434 44.6481L58.5959 44.7872L58.4346 44.9149L58.2571 45.0312L58.0635 45.1361L57.856 45.2297L57.6324 45.314L57.3927 45.387L57.3005 45.4121L57.1968 45.4349L57.0792 45.4554L56.9479 45.476L56.8049 45.4942L56.6482 45.5102L56.4823 45.5261L56.3002 45.5398L56.1065 45.5512L55.9014 45.5626L55.6824 45.5718L55.4519 45.5786L55.2076 45.5854L54.9495 45.59H54.6798L54.3963 45.5923H38.7479V51.2461L38.7432 51.2484ZM53.5503 30.6104L53.8454 30.7153L54.1335 30.8225L54.417 30.9297L54.6936 31.0391L54.9656 31.1486L55.2307 31.2604L55.4911 31.3721L55.7447 31.4861L55.9913 31.6025L56.2333 31.7188L56.4684 31.8374L56.6989 31.956L56.9248 32.0768L57.1438 32.1977L57.3558 32.3209L57.5633 32.444L57.7661 32.5695L57.9597 32.6949L58.1487 32.8226L58.3331 32.9504L61.9635 35.5481L61.7791 35.4204L61.5901 35.2926L61.3941 35.1672L61.1936 35.0418L60.9862 34.9186L60.7718 34.7977L60.5528 34.6768L60.3292 34.556L60.0987 34.4374L59.8613 34.3211L59.6193 34.2047L59.3727 34.0907L59.1191 33.9767L58.8587 33.8626L58.5936 33.7509L58.3216 33.6391L58.045 33.5297L57.7615 33.4202L57.4734 33.313L57.1784 33.2081L56.9018 33.1282L56.6252 33.0484L56.3486 32.9686L56.072 32.8888L55.7954 32.809L55.5188 32.7291L55.2422 32.647L54.9679 32.5649L54.6913 32.4828L54.4147 32.4007L54.1404 32.3186L53.8661 32.2365L53.5918 32.1544L53.3175 32.0723L53.0432 31.9902L52.769 31.9081L52.4947 31.826L52.2204 31.7439L51.9484 31.6618L51.6741 31.5797L51.3998 31.4975L51.1255 31.4154L50.8512 31.3333L50.5769 31.249L50.3049 31.1668L50.033 31.0847L49.761 31.0004L49.4867 30.9182L49.2147 30.8339L48.9427 30.7495L48.6707 30.6651L48.3987 30.5807L48.1982 30.5123L48.0046 30.4439L47.8179 30.3754L47.6381 30.307L47.4652 30.2386L47.2993 30.1679L47.1402 30.0972L46.9881 30.0265L46.8429 29.9535L46.7046 29.8805L46.5732 29.8075L46.4487 29.7346L46.3312 29.6593L46.2206 29.584L42.5902 26.9863L42.7009 27.0616L42.8184 27.1346L42.9429 27.2075L43.0743 27.2805L43.2126 27.3512L43.3578 27.4242L43.5099 27.4949L43.669 27.5656L43.8349 27.6363L44.0078 27.707L44.1876 27.7754L44.3743 27.8439L44.5679 27.9123L44.7684 27.9807L45.0404 28.0651L45.3124 28.1472L45.5844 28.2316L45.8564 28.3137L46.1284 28.3981L46.4026 28.4802L46.6746 28.5623L46.9466 28.6444L47.2209 28.7288L47.4952 28.8109L47.7695 28.893L48.0438 28.9751L48.3181 29.0572L48.5924 29.1393L48.8666 29.2214L49.1409 29.3035L49.4152 29.3856L49.6895 29.4677L49.9638 29.5498L50.2381 29.6319L50.5124 29.714L50.7867 29.7961L51.0633 29.8782L51.3376 29.9604L51.6142 30.0425L51.8908 30.1246L52.1674 30.2044L52.444 30.2842L52.7182 30.364L52.9948 30.4439L53.2714 30.5237L53.548 30.6035L53.5503 30.6104ZM41.4401 16.8782L41.5645 16.8463L41.6913 16.8144L41.8204 16.7825L41.9518 16.7528L42.0878 16.7232L42.2237 16.6958L42.3643 16.6684L42.5073 16.6433L42.6525 16.6182L42.8 16.5954L42.9498 16.5726L43.1019 16.5498L43.2564 16.5293L43.4131 16.5111L43.5721 16.4928L43.7335 16.4768L43.8995 16.4609L44.0677 16.4449L44.2383 16.4312L44.4112 16.4175L44.5863 16.4061L44.7638 16.3947L44.9436 16.3856L45.1257 16.3765L45.3124 16.3674L45.4991 16.3605L45.6881 16.3537L45.8817 16.3491H46.0776L46.2759 16.3423H46.4764H46.6792H60.3523L63.9826 18.94H50.1044H49.9039H49.7057L49.5097 18.9468L49.3161 18.9514L49.1271 18.9583L48.9404 18.9651L48.756 18.9742L48.5739 18.9833L48.3941 18.9925L48.2167 19.0039L48.0415 19.0175L47.8686 19.0312L47.698 19.0449L47.5298 19.0609L47.3638 19.0768L47.2002 19.0951L47.0388 19.1133L46.8821 19.1339L46.7276 19.1544L46.5755 19.1772L46.4257 19.2L46.2782 19.2228L46.133 19.2479L45.9924 19.273L45.8518 19.3004L45.7158 19.33L45.5821 19.3597L45.4507 19.3893L45.3216 19.4189L45.1948 19.4509L45.0704 19.4828L44.8768 19.5398L44.6854 19.5991L44.4964 19.6607L44.3097 19.7246L44.1276 19.7907L43.9456 19.8614L43.7658 19.9344L43.5906 20.0097L43.4177 20.0895L43.2471 20.1716L43.0789 20.256L42.9129 20.3449L42.7516 20.4361L42.5925 20.5297L42.4358 20.6254L42.2814 20.7258L42.1292 20.8284L41.9794 20.9333L41.8319 21.0428L41.689 21.1546L41.5484 21.2686L41.4101 21.3849L41.2741 21.5035L41.1404 21.6267L41.009 21.7521L40.8823 21.8798L40.7578 22.0121L40.6356 22.1467L40.5158 22.2835L40.3982 22.4226L40.283 22.564L40.1723 22.71L40.0479 22.8788L39.9303 23.0453L39.8174 23.2095L39.7136 23.3737L39.6145 23.5379L39.5223 23.7021L39.437 23.864L39.3587 24.0237L39.2849 24.1833L39.2181 24.3407L39.1581 24.4981L39.1051 24.6532L39.0567 24.8082L39.0152 24.9633L38.9807 25.1161L38.9507 25.269L38.9276 25.4195L38.9046 25.57L38.8838 25.7228L38.8631 25.8733L38.8447 26.0261L38.8285 26.1767L38.8147 26.3272L38.8009 26.4777L38.7893 26.6282L38.7778 26.7811L38.7686 26.9316L38.7617 27.0844L38.7548 27.2349L38.7502 27.3854V27.536L38.7479 27.6865V27.8461L38.7548 28.0058L38.764 28.1654L38.7755 28.3228L38.7916 28.4802L38.8101 28.6375L38.8331 28.7926L38.8585 28.9477L38.8862 29.1028L38.9184 29.2556L38.953 29.4107L38.9899 29.5635L39.0314 29.7163L39.0752 29.8668L39.1236 30.0174L39.1743 30.1679L39.2296 30.3184L39.2872 30.4667L39.3495 30.6149L39.414 30.7632L39.4808 30.9114L39.5523 31.0597L39.626 31.2056L39.7044 31.3516L39.7851 31.4975L39.8704 31.6412L39.958 31.7849L40.0502 31.9286L40.1447 32.0723L40.2415 32.2137L40.3429 32.3551L40.4466 32.4965L40.5573 32.6379L40.6725 32.777L40.7924 32.9161L40.9191 33.053L41.0528 33.1898L41.1911 33.3244L41.334 33.459L41.4838 33.5912L41.6383 33.7235L41.7996 33.8535L41.9656 33.9835L42.1362 34.1112L38.5081 31.5135L38.3353 31.3858L38.1693 31.2558L38.008 31.1258L37.8535 30.9935L37.7037 30.8612L37.5608 30.7267L37.4248 30.5921L37.2934 30.4553L37.1667 30.3184L37.0468 30.1793L36.9315 30.0402L36.8232 29.8988L36.7195 29.7574L36.6181 29.616L36.5213 29.4746L36.4268 29.3309L36.3369 29.1872L36.2493 29.0435L36.164 28.8998L36.0833 28.7539L36.0049 28.6079L35.9312 28.4597L35.8597 28.3137L35.7906 28.1654L35.726 28.0172L35.6661 27.869L35.6085 27.7184L35.5532 27.5679L35.5025 27.4174L35.4541 27.2668L35.4103 27.1163L35.3688 26.9635L35.3319 26.8107L35.2973 26.6579L35.2674 26.5028L35.2374 26.3477L35.212 26.1926L35.1913 26.0353L35.1729 25.8802L35.1567 25.7228L35.1452 25.5654L35.136 25.4081L35.1314 25.2484V25.0888V24.9383V24.7877L35.1383 24.6349L35.1429 24.4844L35.1498 24.3339L35.159 24.1811L35.1706 24.0305L35.1821 23.8777L35.1959 23.7272L35.212 23.5767L35.2282 23.4261L35.2466 23.2733L35.2674 23.1205L35.2881 22.97L35.3112 22.8195L35.3365 22.6667L35.3642 22.5161L35.3987 22.3633L35.4402 22.2083L35.4886 22.0532L35.5416 21.8981L35.6016 21.7407L35.6684 21.5833L35.7422 21.4237L35.8229 21.2618L35.9081 21.0998L36.0003 20.9379L36.0995 20.7737L36.2055 20.6095L36.3161 20.443L36.4337 20.2765L36.5581 20.1077L36.6711 19.9618L36.7863 19.8181L36.9039 19.6789L37.0237 19.5421L37.1459 19.4075L37.2704 19.2753L37.3971 19.1475L37.5262 19.0221L37.6599 18.8989L37.7959 18.7781L37.9342 18.6618L38.0748 18.5477L38.2177 18.436L38.3629 18.3265L38.5127 18.2216L38.6649 18.119L38.8193 18.0186L38.976 17.9228L39.1351 17.8293L39.2964 17.7381L39.4624 17.6514L39.6307 17.567L39.8012 17.4849L39.9741 17.4051L40.1493 17.3298L40.3268 17.2568L40.5065 17.1861L40.6909 17.1177L40.8776 17.0516L41.0666 16.99L41.258 16.9307L41.4516 16.8737L41.4401 16.8782Z" fill="url(#paint0_linear_1513_523)"/>
<path d="M65.4817 42.2283C65.4817 43.2159 65.3573 44.1578 65.1083 45.0564C64.8594 45.9527 64.4837 46.7624 63.9858 47.4808C62.8518 49.0522 61.3328 50.1287 59.4266 50.7126C58.2027 51.0706 56.6376 51.2508 54.7314 51.2508H38.7441V45.5969H54.3902C55.9323 45.5969 56.9303 45.5308 57.3844 45.394C58.7005 45.0359 59.3574 44.2057 59.3574 42.9034C59.3574 41.9159 58.9956 41.1085 58.2695 40.4791C57.7255 40.0298 56.8635 39.6055 55.6833 39.1996C52.6892 38.3033 49.7204 37.3819 46.7723 36.4399C43.6883 35.3178 41.5792 34.0064 40.4452 32.5034C39.3112 31.0005 38.7441 29.3948 38.7441 27.6912C38.7441 26.8838 38.811 26.0764 38.947 25.2691C39.083 24.4617 39.4909 23.6087 40.1709 22.7124C41.3511 21.141 42.983 20.0645 45.069 19.4806C46.3851 19.1226 48.13 18.9424 50.3081 18.9424H63.9835V24.5962H48.6071C47.473 24.5962 46.5672 24.8083 45.8872 25.2348C45.2073 25.6613 44.8661 26.2771 44.8661 27.0868C44.8661 28.0287 45.2511 28.8155 46.0232 29.4427C46.5211 29.8464 47.3163 30.2273 48.4042 30.5876C51.3062 31.4862 54.2335 32.3598 57.1816 33.2127C60.3555 34.3348 62.5337 35.6576 63.7115 37.1834C64.8917 38.7092 65.4794 40.3924 65.4794 42.2329L65.4817 42.2283Z" fill="#E30613"/>
<path d="M6.72283 50.6531C6.51538 50.6531 6.34251 50.6372 6.1973 50.603C6.04517 50.5665 5.92761 50.5095 5.84464 50.4342C5.75935 50.3566 5.69482 50.2472 5.65333 50.1081C5.61414 49.9758 5.5957 49.8184 5.5957 49.6291V47.5856C5.5957 47.2024 5.67868 46.9333 5.84233 46.7828C5.92531 46.7052 6.04286 46.6482 6.19499 46.6117C6.3379 46.5775 6.51308 46.5616 6.72053 46.5616H9.55563C9.76308 46.5616 9.93825 46.5798 10.0812 46.6117C10.2333 46.6482 10.3508 46.7052 10.4338 46.7805C10.5191 46.8558 10.5836 46.9584 10.6251 47.093C10.6643 47.2161 10.6828 47.3667 10.6828 47.5423H10.4661C10.4661 47.3872 10.45 47.2595 10.4177 47.1568C10.3877 47.0633 10.3462 46.9926 10.2909 46.9424C10.2333 46.89 10.148 46.8489 10.0305 46.8216C9.90368 46.7919 9.74464 46.7759 9.55563 46.7759H6.72053C6.52921 46.7759 6.37017 46.7896 6.2457 46.8216C6.13045 46.8489 6.04517 46.89 5.98755 46.9402C5.86769 47.0496 5.81006 47.2663 5.81006 47.5879V49.6314C5.81006 49.8002 5.8262 49.9393 5.85847 50.051C5.88843 50.1514 5.93223 50.2289 5.98755 50.2791C6.04517 50.3316 6.13045 50.3703 6.2457 50.4C6.37017 50.4296 6.52921 50.4433 6.72053 50.4433V50.6577L6.72283 50.6531ZM13.3842 50.6166H12.34V46.5228H15.968C16.1386 46.5228 16.2861 46.5388 16.4129 46.5707C16.5466 46.6026 16.6549 46.6528 16.7402 46.7212C16.8278 46.7965 16.89 46.89 16.9338 47.004C16.9753 47.1135 16.9937 47.2389 16.9937 47.3826H16.7771C16.7771 47.264 16.761 47.1614 16.731 47.077C16.701 46.9972 16.6595 46.9356 16.6019 46.8854C16.542 46.8375 16.4613 46.801 16.3599 46.7759C16.2515 46.7486 16.1202 46.7349 15.9657 46.7349H12.5521V50.4023H13.3796V50.6166H13.3842ZM19.4993 50.6166C19.2872 50.6166 19.1097 50.6007 18.9668 50.5665C18.8124 50.53 18.6948 50.473 18.6118 50.3954C18.5289 50.3202 18.4666 50.213 18.4274 50.0716C18.3906 49.9416 18.3721 49.7819 18.3721 49.5903V47.5468C18.3721 47.3575 18.3906 47.1979 18.4274 47.0679C18.4666 46.9265 18.5289 46.8193 18.6118 46.7417C18.6948 46.6665 18.8147 46.6095 18.9668 46.573C19.112 46.5388 19.2895 46.5205 19.4993 46.5205H22.528C22.74 46.5205 22.9152 46.5365 23.0604 46.5707C23.2148 46.6072 23.3347 46.6642 23.42 46.7395C23.503 46.8193 23.5629 46.9265 23.6021 47.0679C23.639 47.1979 23.6574 47.3575 23.6574 47.5445H23.443C23.443 47.3758 23.4269 47.2344 23.3969 47.1249C23.3693 47.0245 23.3278 46.9493 23.2748 46.8968C23.2172 46.8444 23.1296 46.8056 23.012 46.7782C22.8829 46.7486 22.7216 46.7326 22.5303 46.7326H19.5016C19.3056 46.7326 19.1443 46.7486 19.0198 46.7782C18.9023 46.8056 18.817 46.8444 18.7617 46.8968C18.7086 46.9447 18.6672 47.0223 18.6395 47.1226C18.6072 47.2344 18.5934 47.3735 18.5934 47.5445V49.5881C18.5934 49.7591 18.6095 49.9005 18.6395 50.0123C18.6672 50.1149 18.7086 50.1879 18.7617 50.2358C18.817 50.2882 18.9046 50.327 19.0198 50.3544C19.1466 50.384 19.3079 50.4 19.5016 50.4V50.6121L19.4993 50.6166ZM26.5524 50.6166C26.3473 50.6166 26.1698 50.5984 26.0269 50.5665C25.8748 50.53 25.7572 50.473 25.6742 50.3954C25.5913 50.3202 25.529 50.213 25.4899 50.0716C25.453 49.9416 25.4345 49.7819 25.4345 49.5903V46.5205H26.5962V49.6747H29.1063V46.5205H30.2865V47.3256H30.0698V46.7326H29.3207V49.8868H26.3796V46.7326H25.6489V49.5881C25.6489 49.7591 25.665 49.9005 25.695 50.0123C25.7226 50.1149 25.7641 50.1879 25.8172 50.2358C25.8725 50.2882 25.9601 50.327 26.0753 50.3544C26.1998 50.384 26.3588 50.4 26.5501 50.4V50.6144L26.5524 50.6166ZM33.1746 50.6166H32.1305V46.5228H35.7585C35.9336 46.5228 36.0858 46.5388 36.2102 46.5707C36.3439 46.6026 36.45 46.6551 36.5329 46.7235C36.6182 46.7965 36.6828 46.89 36.7266 47.004C36.7657 47.1135 36.7865 47.2389 36.7865 47.3826H36.5698C36.5698 47.264 36.5537 47.1614 36.5237 47.077C36.4938 46.9972 36.45 46.9333 36.3923 46.8854C36.337 46.8375 36.2586 46.801 36.1595 46.7759C36.0512 46.7486 35.9175 46.7349 35.7585 46.7349H32.3471V50.4023H33.1746V50.6166Z" fill="#1D1D1B"/>
<path fill-rule="evenodd" clip-rule="evenodd" d="M40.2043 39.2451L38.3027 37.8835L38.2474 37.8402L38.1875 37.7969L40.0891 39.1585L40.149 39.2018L40.2043 39.2451Z" fill="#EDEDED"/>
<path fill-rule="evenodd" clip-rule="evenodd" d="M33.8948 33.5411L31.9932 32.1795L32.0508 32.2183L32.1107 32.257L32.1753 32.2958L32.2444 32.3346L32.3159 32.3711L32.3919 32.4076L32.4726 32.4441L32.5556 32.4806L32.6432 32.517L32.7331 32.5535L32.8276 32.59L32.9244 32.6265L33.0258 32.663L33.1318 32.6972L33.2747 32.7406L33.4176 32.7839L33.5605 32.8272L33.7035 32.8706L33.8464 32.9139L33.9893 32.9572L34.1322 33.0006L34.2751 33.0439L34.418 33.0872L34.5609 33.1306L34.7038 33.1739L34.8467 33.2172L34.9896 33.2606L35.1325 33.3039L35.2754 33.3472L35.4184 33.3906L35.5613 33.4339L35.7042 33.4772L35.8471 33.5206L35.99 33.5639L36.1329 33.6072L36.2758 33.6506L36.421 33.6939L36.5639 33.7372L36.7091 33.7806L36.8543 33.8239L36.9996 33.8649L37.1448 33.9083L37.29 33.9516L37.4352 33.9927L37.5804 34.0337L37.7256 34.0748L37.8801 34.1295L38.0322 34.1865L38.1797 34.2435L38.3249 34.3006L38.4678 34.3599L38.6084 34.4192L38.7444 34.4784L38.8781 34.5377L39.0072 34.597L39.134 34.6586L39.2584 34.7202L39.3783 34.7818L39.4958 34.8434L39.6111 34.9072L39.7217 34.9711L39.83 35.0349L39.9361 35.1011L40.0375 35.1672L40.1366 35.2334L40.2334 35.2995L42.135 36.6611L42.0382 36.5949L41.9391 36.5288L41.8377 36.4627L41.7316 36.3965L41.6233 36.3327L41.5127 36.2688L41.3974 36.2049L41.2799 36.1411L41.16 36.0795L41.0355 36.0179L40.9088 35.9563L40.7797 35.897L40.646 35.8377L40.51 35.7785L40.3717 35.7192L40.2288 35.6599L40.0836 35.6028L39.9361 35.5458L39.7863 35.4911L39.6318 35.4363L39.4866 35.3953L39.3414 35.352L39.1962 35.3109L39.051 35.2676L38.9058 35.2265L38.7605 35.1832L38.6153 35.1399L38.4701 35.0965L38.3272 35.0532L38.1843 35.0099L38.0391 34.9665L37.8962 34.9232L37.7533 34.8799L37.6081 34.8365L37.4652 34.7932L37.3222 34.7499L37.1793 34.7065L37.0364 34.6632L36.8935 34.6199L36.7506 34.5765L36.6077 34.5332L36.4648 34.4899L36.3219 34.4465L36.179 34.4032L36.0361 34.3599L35.8932 34.3165L35.7503 34.2732L35.6074 34.2299L35.4644 34.1865L35.3215 34.1432L35.1786 34.0999L35.0357 34.0565L34.9297 34.02L34.8283 33.9835L34.7315 33.947L34.637 33.9106L34.5471 33.8741L34.4595 33.8376L34.3765 33.8011L34.2958 33.7646L34.2198 33.7281L34.1483 33.6893L34.0792 33.6506L34.0146 33.6118L33.9524 33.573L33.8948 33.5342V33.5411ZM29.9763 44.8876L28.0747 43.526V40.5634H36.421H36.5616H36.6953L36.8221 40.5588H36.9442L37.0595 40.552L37.1678 40.5474L37.2692 40.5406L37.3637 40.5337L37.4513 40.5246L37.532 40.5155L37.6058 40.5063L37.6726 40.4972L37.7325 40.4858L37.7879 40.4744L37.8363 40.4607L37.963 40.422L38.0806 40.3786L38.1889 40.3285L38.2903 40.2737L38.3825 40.2121L38.4678 40.146L38.5439 40.073L38.613 39.9932L38.673 39.9088L38.726 39.8199L38.7698 39.7241L38.8066 39.6214L38.8343 39.5142L38.8551 39.4002L38.8666 39.2816L38.8712 39.1562V39.0604L38.862 38.9669L38.8504 38.8756L38.8343 38.7867L38.8136 38.7L38.7882 38.6156L38.7582 38.5335L38.726 38.4537L38.6891 38.3762L38.6476 38.3009L38.6015 38.2279L38.5508 38.1572L38.4955 38.0865L38.4355 38.0204L38.371 37.9565L38.3019 37.8927L40.2035 39.2542L40.2726 39.3181L40.3371 39.3842L40.3971 39.4504L40.4524 39.5188L40.5031 39.5895L40.5492 39.6625L40.5907 39.7377L40.6276 39.8153L40.6598 39.8951L40.6898 39.9772L40.7152 40.0616L40.7359 40.1483L40.752 40.2372L40.7636 40.3285L40.7705 40.422V40.5177V40.6432L40.7589 40.7618L40.7382 40.8758L40.7105 40.983L40.6737 41.0856L40.6299 41.1814L40.5769 41.2727L40.5169 41.357L40.4501 41.4369L40.374 41.5099L40.2887 41.576L40.1965 41.6376L40.0951 41.6923L39.9868 41.7425L39.8692 41.7858L39.7448 41.8246L39.6964 41.8383L39.641 41.8497L39.5811 41.8611L39.5143 41.8702L39.4405 41.8793L39.3598 41.8884L39.2723 41.8953L39.1777 41.9021L39.0763 41.909L38.968 41.9135L38.8527 41.9181L38.7306 41.9227H38.6038L38.4701 41.9272H38.3295H38.182H29.9855V44.8899L29.9763 44.8876ZM31.3893 26.8814L31.4538 26.8655L31.5207 26.8495L31.5875 26.8335L31.6566 26.8176L31.7258 26.8039L31.7972 26.7902L31.871 26.7765L31.9448 26.7628L32.0208 26.7492L32.0969 26.7377L32.1753 26.7263L32.2559 26.7149L32.3366 26.7035L32.4196 26.6921L32.5026 26.683L32.5879 26.6739L32.6731 26.6648L32.7607 26.6579L32.8506 26.6511L32.9405 26.6442L33.0327 26.6374L33.1249 26.6306L33.2194 26.626L33.3162 26.6214L33.413 26.6169L33.5121 26.6123H33.6113L33.7127 26.6077H33.8141L33.9178 26.6055H34.0215H34.1276H41.2914L43.193 27.967H35.8171L35.7134 27.9693H35.612L35.5105 27.9739H35.4114L35.3123 27.9807L35.2155 27.9853L35.121 27.9899L35.0265 27.9944L34.9343 28.0013L34.8421 28.0081L34.7522 28.0149L34.6623 28.0218L34.5747 28.0286L34.4871 28.0377L34.4019 28.0469L34.3189 28.056L34.2359 28.0651L34.1552 28.0765L34.0746 28.0879L33.9962 28.0993L33.9178 28.113L33.8418 28.1267L33.7657 28.1404L33.6919 28.1541L33.6205 28.1677L33.5513 28.1837L33.4822 28.1997L33.4153 28.2156L33.3485 28.2316L33.284 28.2499L33.1825 28.2795L33.0811 28.3114L32.982 28.3434L32.8852 28.3776L32.7884 28.4141L32.6939 28.4506L32.5994 28.4893L32.5072 28.5304L32.4173 28.5714L32.3274 28.6148L32.2398 28.6604L32.1522 28.706L32.0669 28.7539L31.9839 28.8041L31.901 28.8542L31.8203 28.9067L31.7396 28.9614L31.6613 29.0162L31.5852 29.0732L31.5091 29.1325L31.4354 29.1918L31.3616 29.2534L31.2902 29.3172L31.221 29.3811L31.1519 29.4472L31.085 29.5134L31.0182 29.5818L30.9536 29.6525L30.8914 29.7255L30.8292 29.7985L30.7692 29.8737L30.7093 29.949L30.6448 30.0379L30.5825 30.1246L30.5226 30.2113L30.4673 30.2979L30.4143 30.3846L30.3659 30.469L30.3221 30.5534L30.2806 30.6377L30.2414 30.7221L30.2068 30.8042L30.1746 30.8863L30.1469 30.9684L30.1215 31.0506L30.0985 31.1304L30.0801 31.2102L30.0639 31.29L30.0501 31.3699L30.0386 31.4497L30.027 31.5295L30.0155 31.6093L30.0063 31.6892L29.9971 31.769L29.9902 31.8488L29.9832 31.9286L29.9763 32.0085L29.9694 32.0883L29.9648 32.1681L29.9602 32.2479V32.3277L29.9556 32.4076V32.4874V32.5672V32.6516L29.9602 32.7337L29.9648 32.8158L29.9717 32.8979L29.9786 32.98L29.9879 33.0621L29.9994 33.1442L30.0132 33.2263L30.0293 33.3085L30.0455 33.3906L30.0639 33.4704L30.0847 33.5502L30.1077 33.63L30.1308 33.7099L30.1561 33.7897L30.1838 33.8695L30.2137 33.9493L30.2437 34.0269L30.276 34.1044L30.3105 34.182L30.3474 34.2595L30.3843 34.337L30.4235 34.4123L30.465 34.4899L30.5088 34.5651L30.5526 34.6404L30.5987 34.7156L30.6471 34.7909L30.6955 34.8662L30.7462 34.9414L30.7992 35.0167L30.8545 35.0897L30.9121 35.1627L30.9721 35.2356L31.0343 35.3086L31.1011 35.3816L31.1703 35.4523L31.2417 35.523L31.3178 35.5937L31.3962 35.6644L31.4769 35.7328L31.5598 35.8013L31.6474 35.8674L31.7373 35.9358L29.8357 34.5742L29.7458 34.5058L29.6582 34.4374L29.5753 34.369L29.4946 34.3006L29.4162 34.2321L29.3402 34.1614L29.2687 34.0907L29.1996 34.02L29.1327 33.9493L29.0705 33.8763L29.0105 33.8034L28.9529 33.7304L28.8976 33.6574L28.8446 33.5821L28.7939 33.5069L28.7432 33.4316L28.6948 33.3563L28.6487 33.2811L28.6049 33.2058L28.5611 33.1306L28.5196 33.0553L28.4804 32.9777L28.4435 32.9002L28.4066 32.8227L28.3721 32.7451L28.3398 32.6676L28.3098 32.59L28.2822 32.5102L28.2545 32.4327L28.2292 32.3528L28.2061 32.273L28.1854 32.1932L28.1646 32.1134L28.1462 32.0313L28.13 31.9514L28.1162 31.8693L28.1024 31.7872L28.0909 31.7051L28.0816 31.623L28.0747 31.5409L28.0678 31.4588L28.0632 31.3767V31.2923L28.0586 31.2079V31.1281V31.0483V30.9684L28.0632 30.8886L28.0678 30.8088L28.0724 30.729L28.077 30.6492L28.084 30.5693L28.0909 30.4895L28.0978 30.4097L28.107 30.3299L28.1162 30.25L28.1277 30.1702L28.1393 30.0904L28.1508 30.0106L28.1646 29.9307L28.1808 29.8509L28.1992 29.7711L28.2223 29.689L28.2476 29.6069L28.2753 29.5248L28.3075 29.4427L28.3421 29.3606L28.3813 29.2762L28.4228 29.1918L28.4666 29.1074L28.515 29.023L28.5657 28.9386L28.621 28.852L28.6786 28.7653L28.7409 28.6786L28.8054 28.5897L28.8653 28.5144L28.9253 28.4392L28.9875 28.3662L29.0497 28.2955L29.1143 28.2248L29.1788 28.1563L29.2457 28.0879L29.3125 28.0218L29.3816 27.9579L29.4531 27.8963L29.5246 27.8348L29.5983 27.7755L29.6744 27.7184L29.7504 27.6614L29.8288 27.6067L29.9072 27.5542L29.9879 27.5018L30.0708 27.4516L30.1538 27.4014L30.2391 27.3535L30.3267 27.3079L30.4143 27.2646L30.5042 27.2213L30.5941 27.1802L30.6863 27.1414L30.7808 27.1027L30.8753 27.0662L30.9721 27.0297L31.0712 26.9955L31.1703 26.9635L31.2717 26.9316L31.3731 26.902L31.3893 26.8814Z" fill="url(#paint1_linear_1513_523)"/>
<path d="M43.9822 40.162C43.9822 40.6798 43.9154 41.1724 43.7863 41.6445C43.6549 42.1143 43.459 42.5385 43.1985 42.9126C42.6039 43.7359 41.8087 44.2992 40.8106 44.6049C40.1698 44.7941 39.3493 44.8877 38.3512 44.8877H29.975V41.925H38.1714C38.9805 41.925 39.5014 41.8908 39.7388 41.8201C40.428 41.6331 40.7714 41.1975 40.7714 40.5156C40.7714 39.9978 40.5824 39.5759 40.2021 39.2452C39.9163 39.0103 39.4668 38.7868 38.8468 38.5747C37.2794 38.1049 35.7212 37.6213 34.1792 37.1287C32.5634 36.5403 31.4594 35.8538 30.8647 35.0647C30.27 34.2778 29.9727 33.4363 29.9727 32.5445C29.9727 32.1226 30.0095 31.6984 30.0787 31.2742C30.1501 30.8522 30.3645 30.4052 30.7195 29.9331C31.3372 29.1098 32.1923 28.5464 33.2849 28.2408C33.9741 28.0538 34.8892 27.958 36.0278 27.958H43.1916V30.9206H35.1358C34.5411 30.9206 34.0663 31.0324 33.7113 31.2559C33.354 31.4794 33.1766 31.8033 33.1766 32.2252C33.1766 32.7178 33.3794 33.1306 33.7828 33.4591C34.0432 33.6712 34.4604 33.8696 35.0297 34.0589C36.551 34.5287 38.0815 34.9871 39.6282 35.4341C41.2923 36.0226 42.431 36.7159 43.0487 37.5142C43.6665 38.3124 43.9753 39.195 43.9753 40.1598L43.9822 40.162Z" fill="#1D1D1B"/>
<path fill-rule="evenodd" clip-rule="evenodd" d="M26.8997 30.3869L24.9981 29.0276L24.9451 28.9842L24.8921 28.9363L24.8437 28.8862L24.7976 28.8337L24.7561 28.7767L24.7169 28.722L24.6801 28.6627L24.6432 28.6056L24.6132 28.5463L24.5833 28.487L24.5579 28.4277L24.5348 28.3662L24.5141 28.3046L24.4957 28.243L24.4795 28.1791L24.468 28.1153L24.4588 28.0514L24.4519 27.9853L24.4473 27.9191V27.853V27.7869L24.4496 27.723L24.4565 27.6569L24.4634 27.5953L24.4749 27.5337L24.4888 27.4744L24.5026 27.4151L24.521 27.3581L24.5395 27.3011L24.5625 27.2463L24.5879 27.1916L24.6132 27.1391L24.6432 27.0867L24.6755 27.0365L24.7077 26.9886L24.7446 26.9407L24.7953 26.8791L24.8506 26.8221L24.9083 26.7674L24.9682 26.7172L25.0304 26.6716L25.095 26.6306L25.1618 26.5918L25.2333 26.5576L25.3047 26.5279L25.3808 26.5028L25.4568 26.48L25.5375 26.4618L25.6205 26.4481L25.7058 26.439L25.7934 26.4321H25.8833H25.9732L26.0607 26.439L26.1437 26.4458L26.2267 26.4595L26.3051 26.4732L26.3788 26.4937L26.4526 26.5165L26.5217 26.5416L26.5863 26.5713L26.6508 26.6032L26.7107 26.6397L28.6123 28.0013L28.5524 27.9648L28.4879 27.9328L28.421 27.9032L28.3542 27.8758L28.2804 27.8553L28.2067 27.8348L28.1283 27.8188L28.0453 27.8074L27.9623 27.7983L27.8747 27.7937L27.7848 27.7914L27.695 27.7937L27.6074 27.8006L27.5221 27.8097L27.4391 27.8234L27.3584 27.8416L27.2824 27.8644L27.2063 27.8895L27.1348 27.9191L27.0634 27.9534L26.9966 27.9898L26.932 28.0332L26.8698 28.0788L26.8099 28.129L26.7522 28.1814L26.6969 28.2407L26.6462 28.3023L26.6093 28.3502L26.5747 28.3981L26.5448 28.4483L26.5148 28.5007L26.4872 28.5532L26.4641 28.6056L26.4411 28.6627L26.4226 28.7174L26.4042 28.7744L26.388 28.8337L26.3765 28.8953L26.365 28.9569L26.3581 29.0184L26.3512 29.0823L26.3489 29.1484L26.3466 29.2146L26.3489 29.2807L26.3535 29.3469L26.3604 29.413L26.3696 29.4769L26.3811 29.5407L26.3973 29.6046L26.4157 29.6662L26.4364 29.7277L26.4595 29.7893L26.4849 29.8486L26.5148 29.9079L26.5448 29.9672L26.5794 30.0242L26.6185 30.0813L26.6577 30.1383L26.6992 30.193L26.7453 30.2477L26.7937 30.2979L26.8444 30.3435L26.8997 30.3869Z" fill="url(#paint2_linear_1513_523)"/>
<path fill-rule="evenodd" clip-rule="evenodd" d="M26.591 44.9676L24.6895 43.606V30.7246H27.0774L28.979 32.0862H26.591V44.9676Z" fill="url(#paint3_linear_1513_523)"/>
<path d="M28.9797 44.9673H26.5918V32.0859H28.9797V44.9673Z" fill="#1D1D1B"/>
<path d="M29.2242 29.2147C29.2242 29.5727 29.1251 29.8761 28.9246 30.1269C28.6526 30.4668 28.2746 30.6378 27.786 30.6378C27.2973 30.6378 26.9354 30.4896 26.7003 30.1954C26.4652 29.8989 26.3477 29.5727 26.3477 29.2147C26.3477 28.8566 26.4468 28.5533 26.645 28.3024C26.917 27.9626 27.2973 27.7915 27.7836 27.7915C28.27 27.7915 28.6342 27.9398 28.8693 28.234C29.1044 28.5305 29.2219 28.8566 29.2219 29.2147H29.2242Z" fill="#1D1D1B"/>
<path fill-rule="evenodd" clip-rule="evenodd" d="M20.2721 31.8055L18.3706 30.4439L18.2784 30.3687L18.1839 30.2934L18.0893 30.2227L17.9902 30.1543L19.8918 31.5159L19.9909 31.5843L20.0854 31.655L20.18 31.728L20.2721 31.8055Z" fill="#EDEDED"/>
<path fill-rule="evenodd" clip-rule="evenodd" d="M20.4019 35.9451V35.7079L20.395 35.4776L20.3858 35.2495L20.372 35.026L20.3535 34.807L20.3305 34.5904L20.3051 34.3783L20.2752 34.1707L20.2429 33.9677L20.206 33.7693L20.1645 33.5755L20.1184 33.3839L20.07 33.1969L20.017 33.0144L19.9594 32.8365L19.8972 32.6632L19.8303 32.4921L19.7612 32.3256L19.6874 32.1637L19.609 32.0063L19.5284 31.8535L19.4431 31.7053L19.3532 31.5593L19.2587 31.4179L19.1619 31.2811L19.0605 31.1488L18.9544 31.0211L18.8461 30.8956L18.7332 30.7748L18.6156 30.6584L18.4934 30.5467L18.369 30.4395L20.2706 31.7988L20.395 31.906L20.5172 32.0177L20.6348 32.134L20.7477 32.2549L20.856 32.3804L20.9621 32.5081L21.0635 32.6404L21.1603 32.7772L21.2548 32.9186L21.3447 33.0646L21.43 33.2128L21.5106 33.3656L21.5867 33.523L21.6605 33.6849L21.7296 33.8514L21.7965 34.0202L21.8564 34.1935L21.914 34.3714L21.967 34.5539L22.0177 34.7409L22.0638 34.9325L22.1053 35.1263L22.1422 35.3248L22.1768 35.5277L22.2067 35.7353L22.2321 35.9474L22.2551 36.1618L22.2736 36.3807L22.2874 36.6042L22.2966 36.8323L22.3035 37.0626V37.2976V44.8786L20.4019 43.5193V40.8897L20.3697 40.9148L20.2383 41.0128L20.1069 41.1086L19.9732 41.1998L19.8395 41.2865L19.7059 41.3709L19.5722 41.4507L19.4385 41.526L19.3048 41.599L19.1711 41.6674L19.0351 41.7335L18.8991 41.7951L18.8323 41.8248L18.7631 41.8544L18.694 41.8818L18.6248 41.9091L18.5557 41.9342L18.4865 41.9593L18.4174 41.9821L18.3459 42.0049L18.2745 42.0277L18.203 42.0483L18.1316 42.0688L18.0601 42.087L17.9863 42.1053L17.9126 42.1235L17.8388 42.1395L17.7651 42.1555L17.6913 42.1691L17.6176 42.1828L17.5415 42.1942L17.4654 42.2056L17.3894 42.217L17.3133 42.2262L17.2372 42.2353L17.1612 42.2421L17.0851 42.249L17.0067 42.2558L16.9284 42.2604L16.85 42.2649L16.7716 42.2695H16.6933L16.6126 42.2718H16.5319H16.389L16.2484 42.2672L16.1101 42.2604L15.9718 42.2512L15.8358 42.2398L15.6998 42.2262L15.5661 42.2102L15.4324 42.1919L15.3011 42.1691L15.172 42.1463L15.0429 42.119L14.9138 42.0893L14.7871 42.0574L14.6603 42.0232L14.5358 41.9867L14.4113 41.9479L14.2892 41.9046L14.1693 41.8612L14.0495 41.8134L13.9319 41.7632L13.8144 41.7107L13.6991 41.656L13.5839 41.599L13.4709 41.5397L13.358 41.4781L13.2473 41.4142L13.1367 41.3458L13.0284 41.2751L12.9223 41.2021L12.8163 41.1269L10.9147 39.7653L11.0207 39.8405L11.1268 39.9135L11.2351 39.9842L11.3434 40.0504L11.4541 40.1165L11.5647 40.1781L11.6777 40.2374L11.7929 40.2944L11.9082 40.3491L12.0257 40.4016L12.1433 40.4518L12.2631 40.4997L12.383 40.5453L12.5051 40.5863L12.6296 40.6251L12.7541 40.6616L12.8808 40.6958L13.0076 40.7277L13.1344 40.7574L13.2635 40.7848L13.3926 40.8098L13.5239 40.8304L13.6576 40.8509L13.7913 40.8669L13.9273 40.8805L14.0633 40.8919L14.2016 40.9011L14.3399 40.9079L14.4805 40.9125H14.6234H14.7041H14.7848L14.8631 40.9079L14.9415 40.9033L15.0199 40.8988L15.0982 40.8942L15.1766 40.8874L15.255 40.8805L15.331 40.8714L15.4071 40.8623L15.4832 40.8532L15.5592 40.8418L15.6353 40.8304L15.7113 40.8167L15.7851 40.803L15.8589 40.7893L15.9326 40.7734L16.0064 40.7574L16.0801 40.7391L16.1539 40.7209L16.2254 40.7026L16.2968 40.6821L16.3683 40.6616L16.4397 40.6388L16.5112 40.616L16.5803 40.5932L16.6495 40.5681L16.7186 40.543L16.7878 40.5156L16.8569 40.4883L16.9261 40.4609L16.9952 40.4312L17.1312 40.3697L17.2672 40.3035L17.4032 40.2351L17.5369 40.1621L17.6706 40.0869L17.8043 40.007L17.9379 39.9226L18.0716 39.8337L18.2053 39.7425L18.3367 39.6467L18.4681 39.5486L18.5995 39.446L18.7308 39.3411L18.8622 39.2316L18.9913 39.1176L19.1204 39.0012L20.4043 39.9181V35.9314L20.4019 35.9451ZM14.6649 26.2476H14.8977L15.1282 26.2567L15.3541 26.2681L15.58 26.2841L15.8012 26.3046L16.0202 26.3274L16.2369 26.3548L16.4512 26.3867L16.661 26.4232L16.8684 26.4642L17.0736 26.5098L17.2764 26.56L17.4769 26.6148L17.6752 26.6741L17.8688 26.7379L18.0601 26.8041L18.2491 26.8748L18.4358 26.95L18.6202 27.0298L18.8023 27.1142L18.9798 27.2032L19.155 27.2967L19.3278 27.3948L19.4984 27.4974L19.6667 27.6046L19.8326 27.7141L21.7342 29.0756L21.5706 28.9662L21.4023 28.859L21.2317 28.7563L21.0589 28.6583L20.8837 28.5648L20.7039 28.4758L20.5241 28.3914L20.3397 28.3116L20.153 28.2363L19.964 28.1656L19.7727 28.0995L19.5791 28.0379L19.3832 27.9786L19.1826 27.9239L18.9798 27.8737L18.7746 27.8281L18.5672 27.787L18.3574 27.7505L18.1431 27.7186L17.9264 27.6912L17.7074 27.6684L17.4862 27.6479L17.2626 27.6319L17.0367 27.6205L16.8062 27.6137H16.5734H16.3337L16.0963 27.6205L15.8612 27.6319L15.6284 27.6479L15.3979 27.6707L15.1697 27.6981L14.9438 27.73L14.7202 27.7665L14.4989 27.8076L14.28 27.8555L14.0633 27.9079L13.8489 27.9649L13.6369 28.0265L13.4271 28.0926L13.2197 28.1634L13.0145 28.2386L12.8117 28.3207L12.6112 28.4074L12.4129 28.4986L12.2193 28.5944L12.0257 28.6948L11.8344 28.7997L11.6454 28.9114L11.4587 29.0277L11.2743 29.1486L11.0922 29.2741L10.9124 29.404L10.7372 29.5386L10.5621 29.68L10.3892 29.826L10.2209 29.9765L10.0527 30.1316L9.88901 30.2912L9.72997 30.4532L9.57784 30.6174L9.43032 30.7862L9.28741 30.9572L9.14911 31.1305L9.01773 31.3084L8.89096 31.4886L8.76879 31.6711L8.65124 31.8558L8.5406 32.0428L8.43458 32.2344L8.33316 32.4283L8.23635 32.6267L8.14646 32.8274L8.06117 33.0304L7.9805 33.2356L7.90443 33.4432L7.83528 33.6553L7.77075 33.8697L7.71081 34.0863L7.6578 34.3076L7.6094 34.5311L7.5656 34.7569L7.52642 34.9872L7.49415 35.2198L7.46418 35.4548L7.44113 35.6919L7.42269 35.9337L7.40886 36.1777L7.40195 36.4241V36.6749V36.9144L7.40886 37.1516L7.42039 37.3842L7.43652 37.6146L7.45727 37.8404L7.48493 38.0639L7.5172 38.2851L7.55408 38.5041L7.59557 38.7184L7.64167 38.9305L7.69238 39.1404L7.74769 39.3479L7.80763 39.5509L7.87446 39.7516L7.94592 39.95L8.02199 40.1462L8.10266 40.3377L8.18794 40.527L8.27783 40.7141L8.37234 40.8988L8.47145 41.079L8.57518 41.2569L8.68582 41.4325L8.80107 41.6035L8.92092 41.7723L9.04539 41.9388L9.17447 42.103L9.30815 42.2626L9.44645 42.42L9.58936 42.5751L9.73918 42.7279L9.89131 42.8762L10.0481 43.0221L10.2071 43.1635L10.3684 43.3004L10.5321 43.4326L10.698 43.5604L8.79645 42.2011L8.63049 42.0733L8.46684 41.9411L8.30549 41.8042L8.14646 41.6628L7.98971 41.5169L7.83758 41.3686L7.68776 41.2158L7.54486 41.0607L7.40656 40.9033L7.27287 40.7437L7.1438 40.5795L7.01932 40.413L6.89947 40.2442L6.78422 40.0732L6.67358 39.8976L6.56985 39.7197L6.47074 39.5395L6.37624 39.3548L6.28635 39.1677L6.20106 38.9784L6.12039 38.7846L6.04433 38.5884L5.97287 38.39L5.90603 38.1893L5.8461 37.9841L5.79078 37.7765L5.74007 37.5667L5.69397 37.3546L5.65248 37.1379L5.6156 36.919L5.58333 36.6977L5.55567 36.4742L5.53262 36.2462L5.51649 36.0158L5.50497 35.7832L5.49805 35.5483V35.3088V35.0602L5.50497 34.8139L5.51879 34.5698L5.53723 34.3281L5.56028 34.0909L5.59025 33.856L5.62482 33.6233L5.664 33.393L5.7078 33.1672L5.75621 32.9437L5.80922 32.7225L5.86915 32.5058L5.93369 32.2914L6.00283 32.0793L6.0789 31.8718L6.15957 31.6642L6.24486 31.4612L6.33475 31.2605L6.43156 31.0644L6.53298 30.8705L6.63901 30.679L6.74964 30.4897L6.8672 30.3049L6.98936 30.1225L7.11614 29.9446L7.24751 29.7667L7.38581 29.5933L7.52872 29.4223L7.67624 29.2535L7.82837 29.0893L7.98511 28.9274L8.14876 28.7677L8.31702 28.6126L8.48529 28.4621L8.65816 28.3162L8.83103 28.1748L9.00851 28.0402L9.18599 27.9102L9.36808 27.7848L9.55248 27.6639L9.73918 27.5476L9.92819 27.4358L10.1195 27.3309L10.3131 27.2305L10.509 27.1348L10.7073 27.0435L10.9078 26.9569L11.1083 26.8748L11.3135 26.7995L11.5209 26.7288L11.7307 26.6626L11.9427 26.6011L12.1571 26.5441L12.3738 26.4939L12.5927 26.446L12.814 26.4049L13.0376 26.3684L13.2635 26.3365L13.4917 26.3091L13.7222 26.2863L13.955 26.2681L14.1901 26.2567L14.4275 26.2498H14.6672L14.6649 26.2476Z" fill="url(#paint4_linear_1513_523)"/>
<path d="M25.4383 44.8876H22.3013V37.3066C22.3013 34.7682 21.6236 32.9345 20.2683 31.8055C19.2956 30.9822 18.0233 30.5717 16.4559 30.5717C14.7917 30.5717 13.4018 31.1008 12.2862 32.159C11.1706 33.2173 10.6105 34.6519 10.6105 36.4605C10.6105 38.4127 11.2743 39.9157 12.6066 40.974C13.6991 41.8429 15.0061 42.2785 16.5273 42.2785C17.3825 42.2785 18.1731 42.1212 18.8968 41.8019C19.6229 41.4848 20.3282 41.0082 21.0174 40.3741V43.6196C19.639 44.7006 17.9887 45.2412 16.064 45.2412C13.6162 45.2412 11.5624 44.4543 9.89826 42.8783C8.23408 41.3024 7.4043 39.2338 7.4043 36.6726C7.4043 34.1113 8.2894 31.8124 10.0596 30.1315C11.8298 28.4506 13.9988 27.6113 16.5642 27.6113C19.1296 27.6113 21.0912 28.3526 22.6586 29.8327C24.5117 31.5729 25.4383 34.0999 25.4383 37.4161V44.8922V44.8876Z" fill="#1D1D1B"/>
<path d="M10.4818 48.0283H7.49917V50.4596H10.4818V49.6362H8.92595V48.9475H11.4176V50.2862C11.4176 50.6375 11.3462 50.8792 11.2056 51.0115C11.065 51.1392 10.793 51.2031 10.3965 51.2031H7.56141C7.16265 51.2031 6.89528 51.1392 6.75698 51.0115C6.61407 50.8838 6.54492 50.642 6.54492 50.2862V48.2427C6.54492 47.8892 6.61638 47.6497 6.75698 47.5175C6.89758 47.3897 7.16265 47.3259 7.56141 47.3259H10.3965C10.793 47.3259 11.0627 47.3897 11.2056 47.5175C11.3485 47.6406 11.4176 47.8664 11.4176 48.1971V48.2975L10.4818 48.4525V48.0283ZM16.4033 47.9576H14.2228V49.0318H16.4033C16.56 49.0318 16.6752 49.0068 16.7444 48.9589C16.8066 48.9132 16.8366 48.8334 16.8366 48.7194V48.2724C16.8366 48.1583 16.8066 48.0785 16.7444 48.0329C16.6752 47.985 16.56 47.9599 16.4033 47.9599V47.9576ZM13.2869 51.1689V47.2871H16.8089C17.1339 47.2871 17.369 47.3464 17.5142 47.4604C17.6572 47.5836 17.7286 47.7752 17.7286 48.0397V48.9589C17.7286 49.2166 17.6572 49.4059 17.5142 49.529C17.369 49.6454 17.1362 49.7024 16.8112 49.7024H16.2742L18.1366 51.1666H16.7651L15.124 49.7024H14.2228V51.1666H13.2869V51.1689ZM20.2756 50.4231H23.4357V47.9918H20.2756V50.4231ZM19.3213 48.2062C19.3213 47.8482 19.3882 47.6064 19.5242 47.481C19.6625 47.3532 19.9345 47.2894 20.3378 47.2894H23.3666C23.7699 47.2894 24.0419 47.3532 24.1825 47.481C24.3185 47.6087 24.3877 47.8504 24.3877 48.2062V50.2497C24.3877 50.6032 24.3162 50.845 24.1733 50.975C24.0327 51.1027 23.763 51.1666 23.3642 51.1666H20.3355C19.9298 51.1666 19.6602 51.1027 19.5219 50.975C19.3859 50.8518 19.319 50.6101 19.319 50.2497V48.2062H19.3213ZM27.3288 47.2871V50.4413H30.0533V47.2871H31.0167V50.2497C31.0167 50.6055 30.9453 50.845 30.8024 50.975C30.6641 51.1027 30.3921 51.1666 29.9887 51.1666H27.391C26.9946 51.1666 26.7249 51.1027 26.5866 50.975C26.4506 50.8518 26.3838 50.6101 26.3838 50.2497V47.2871H27.3288ZM33.0774 51.1689V47.2871H36.5994C36.9336 47.2871 37.1687 47.3464 37.3047 47.4604C37.4476 47.5836 37.519 47.7752 37.519 48.0397V48.9018C37.519 49.1596 37.4476 49.3511 37.3047 49.472C37.1525 49.5952 36.9174 49.6545 36.6017 49.6545H34.0155V51.1666H33.0797L33.0774 51.1689ZM36.1937 47.9576H34.0132V48.984H36.1937C36.355 48.984 36.468 48.9611 36.5348 48.911C36.597 48.8676 36.627 48.7901 36.627 48.6738V48.2724C36.627 48.1583 36.597 48.0785 36.5348 48.0329C36.4657 47.985 36.3504 47.9599 36.1937 47.9599V47.9576Z" fill="#1D1D1B"/>
<path d="M74.7404 13.9908C74.7404 13.3901 74.7976 12.8036 74.912 12.2315C75.03 11.6593 75.2088 11.114 75.4484 10.5955C75.688 10.077 75.9902 9.5978 76.3549 9.15796H77.4545C76.9431 9.84096 76.5569 10.5973 76.2959 11.4269C76.0384 12.2565 75.9097 13.1076 75.9097 13.9801C75.9097 14.5487 75.9669 15.1119 76.0813 15.6697C76.1958 16.2276 76.3674 16.764 76.5963 17.2789C76.8251 17.7974 77.1076 18.2838 77.4438 18.7379H76.3549C75.9902 18.3088 75.688 17.8403 75.4484 17.3326C75.2088 16.8248 75.03 16.2884 74.912 15.7234C74.7976 15.1584 74.7404 14.5809 74.7404 13.9908ZM83.5908 13.0736C83.5908 13.7066 83.5408 14.2733 83.4406 14.774C83.3441 15.271 83.1903 15.693 82.9793 16.0399C82.7684 16.3867 82.493 16.6513 82.1533 16.8337C81.8136 17.0161 81.4023 17.1073 80.9196 17.1073C80.3153 17.1073 79.8164 16.9481 79.4231 16.6299C79.0297 16.3081 78.7383 15.8468 78.5487 15.246C78.3592 14.6417 78.2645 13.9175 78.2645 13.0736C78.2645 12.2297 78.3503 11.5074 78.5219 10.9066C78.6971 10.3023 78.9796 9.83918 79.3694 9.51734C79.7592 9.19551 80.2759 9.03459 80.9196 9.03459C81.5275 9.03459 82.0281 9.19551 82.4215 9.51734C82.8184 9.8356 83.1116 10.2969 83.3012 10.9012C83.4943 11.502 83.5908 12.2261 83.5908 13.0736ZM79.5357 13.0736C79.5357 13.7352 79.5786 14.2876 79.6644 14.7311C79.7538 15.1745 79.9004 15.507 80.1043 15.7288C80.3081 15.9469 80.5799 16.056 80.9196 16.056C81.2593 16.056 81.5311 15.9469 81.7349 15.7288C81.9387 15.5106 82.0853 15.1798 82.1747 14.7364C82.2677 14.293 82.3142 13.7387 82.3142 13.0736C82.3142 12.4156 82.2695 11.8649 82.1801 11.4215C82.0907 10.9781 81.9441 10.6456 81.7403 10.4238C81.5364 10.1986 81.2629 10.0859 80.9196 10.0859C80.5763 10.0859 80.3027 10.1986 80.0989 10.4238C79.8987 10.6456 79.7538 10.9781 79.6644 11.4215C79.5786 11.8649 79.5357 12.4156 79.5357 13.0736ZM87.2329 12.0974C87.7371 12.0974 88.1805 12.1886 88.5632 12.3709C88.9494 12.5497 89.2497 12.8144 89.4643 13.1648C89.6789 13.5117 89.7861 13.9372 89.7861 14.4414C89.7861 14.9921 89.6699 15.4677 89.4375 15.8682C89.205 16.2651 88.8635 16.5709 88.413 16.7854C87.9624 17 87.4135 17.1073 86.7663 17.1073C86.355 17.1073 85.9706 17.0715 85.613 17C85.259 16.9285 84.9533 16.8212 84.6958 16.6782V15.541C84.964 15.6912 85.2858 15.8146 85.6613 15.9111C86.0368 16.0041 86.3961 16.0506 86.7394 16.0506C87.1042 16.0506 87.4171 15.9969 87.6781 15.8897C87.9392 15.7824 88.1394 15.6179 88.2789 15.3962C88.4219 15.1745 88.4934 14.8938 88.4934 14.5541C88.4934 14.1035 88.3486 13.7566 88.059 13.5135C87.7729 13.2667 87.3241 13.1433 86.7126 13.1433C86.4981 13.1433 86.2692 13.163 86.026 13.2023C85.7864 13.2381 85.5862 13.2774 85.4253 13.3204L84.8728 12.9932L85.1678 9.15796H89.2444V10.2683H86.2781L86.1065 12.2208C86.2352 12.1921 86.389 12.1653 86.5678 12.1403C86.7466 12.1117 86.9683 12.0974 87.2329 12.0974ZM96.1638 13.0736C96.1638 13.7066 96.1138 14.2733 96.0136 14.774C95.9171 15.271 95.7633 15.693 95.5523 16.0399C95.3414 16.3867 95.066 16.6513 94.7263 16.8337C94.3866 17.0161 93.9754 17.1073 93.4926 17.1073C92.8883 17.1073 92.3894 16.9481 91.9961 16.6299C91.6027 16.3081 91.3113 15.8468 91.1218 15.246C90.9322 14.6417 90.8375 13.9175 90.8375 13.0736C90.8375 12.2297 90.9233 11.5074 91.0949 10.9066C91.2702 10.3023 91.5527 9.83918 91.9424 9.51734C92.3322 9.19551 92.8489 9.03459 93.4926 9.03459C94.1005 9.03459 94.6011 9.19551 94.9945 9.51734C95.3914 9.8356 95.6847 10.2969 95.8742 10.9012C96.0673 11.502 96.1638 12.2261 96.1638 13.0736ZM92.1087 13.0736C92.1087 13.7352 92.1516 14.2876 92.2374 14.7311C92.3268 15.1745 92.4735 15.507 92.6773 15.7288C92.8811 15.9469 93.1529 16.056 93.4926 16.056C93.8323 16.056 94.1041 15.9469 94.3079 15.7288C94.5117 15.5106 94.6584 15.1798 94.7478 14.7364C94.8407 14.293 94.8872 13.7387 94.8872 13.0736C94.8872 12.4156 94.8425 11.8649 94.7531 11.4215C94.6637 10.9781 94.5171 10.6456 94.3133 10.4238C94.1095 10.1986 93.8359 10.0859 93.4926 10.0859C93.1493 10.0859 92.8758 10.1986 92.6719 10.4238C92.4717 10.6456 92.3268 10.9781 92.2374 11.4215C92.1516 11.8649 92.1087 12.4156 92.1087 13.0736ZM99.6879 13.9855C99.6879 14.5791 99.6307 15.1584 99.5163 15.7234C99.4018 16.2884 99.2248 16.8248 98.9852 17.3326C98.7492 17.8403 98.4453 18.3088 98.0734 18.7379H96.9899C97.326 18.2838 97.6085 17.7974 97.8374 17.2789C98.0662 16.7604 98.2379 16.2222 98.3523 15.6644C98.4667 15.1065 98.524 14.5433 98.524 13.9748C98.524 13.3955 98.465 12.8233 98.3469 12.2583C98.2325 11.6933 98.0609 11.1498 97.832 10.6277C97.6031 10.102 97.3189 9.6121 96.9791 9.15796H98.0734C98.4453 9.5978 98.7492 10.077 98.9852 10.5955C99.2248 11.114 99.4018 11.6593 99.5163 12.2315C99.6307 12.8001 99.6879 13.3847 99.6879 13.9855ZM108.49 10.9495C108.49 11.3035 108.419 11.6111 108.276 11.8721C108.133 12.1331 107.936 12.3477 107.686 12.5158C107.439 12.6803 107.153 12.7983 106.827 12.8698V12.9073C107.453 12.986 107.925 13.1827 108.243 13.4974C108.565 13.812 108.726 14.2286 108.726 14.7472C108.726 15.2013 108.617 15.6072 108.399 15.9648C108.181 16.3188 107.846 16.5977 107.396 16.8015C106.945 17.0054 106.366 17.1073 105.658 17.1073C105.232 17.1073 104.837 17.0733 104.473 17.0054C104.111 16.9374 103.768 16.8284 103.443 16.6782V15.5571C103.775 15.7216 104.129 15.8485 104.505 15.9379C104.88 16.0273 105.236 16.072 105.572 16.072C106.227 16.072 106.693 15.9505 106.972 15.7073C107.251 15.4606 107.391 15.1208 107.391 14.6882C107.391 14.4092 107.317 14.1804 107.171 14.0016C107.028 13.8228 106.804 13.6887 106.5 13.5993C106.2 13.5099 105.812 13.4652 105.336 13.4652H104.644V12.4514H105.341C105.796 12.4514 106.16 12.3978 106.436 12.2905C106.711 12.1796 106.91 12.0277 107.031 11.8346C107.156 11.6415 107.219 11.4162 107.219 11.1587C107.219 10.8226 107.11 10.5615 106.892 10.3756C106.674 10.186 106.35 10.0913 105.921 10.0913C105.656 10.0913 105.415 10.1217 105.197 10.1825C104.982 10.2433 104.784 10.3201 104.601 10.4131C104.419 10.5061 104.245 10.6062 104.081 10.7135L103.475 9.83918C103.772 9.61747 104.126 9.42973 104.537 9.27596C104.948 9.1222 105.427 9.04532 105.974 9.04532C106.779 9.04532 107.399 9.21875 107.836 9.56562C108.272 9.90891 108.49 10.3702 108.49 10.9495ZM109.777 13.6583C109.777 13.197 109.81 12.7428 109.874 12.2958C109.942 11.8489 110.056 11.4305 110.217 11.0407C110.378 10.6509 110.6 10.3076 110.882 10.0108C111.168 9.71402 111.528 9.48158 111.961 9.31351C112.393 9.14187 112.914 9.05604 113.521 9.05604C113.679 9.05604 113.856 9.0632 114.052 9.0775C114.249 9.0918 114.412 9.11505 114.541 9.14723V10.1932C114.401 10.1539 114.247 10.1235 114.079 10.102C113.915 10.0806 113.75 10.0698 113.586 10.0698C112.928 10.0698 112.415 10.195 112.046 10.4453C111.678 10.692 111.415 11.0318 111.258 11.4644C111.101 11.8936 111.009 12.3852 110.984 12.9395H111.049C111.156 12.7607 111.29 12.6016 111.451 12.4621C111.612 12.3227 111.809 12.2118 112.041 12.1296C112.273 12.0437 112.543 12.0008 112.851 12.0008C113.309 12.0008 113.707 12.0974 114.047 12.2905C114.387 12.48 114.648 12.7554 114.83 13.1165C115.016 13.4777 115.109 13.9157 115.109 14.4307C115.109 14.985 115.004 15.4623 114.793 15.8629C114.585 16.2634 114.288 16.5709 113.902 16.7854C113.52 17 113.064 17.1073 112.534 17.1073C112.145 17.1073 111.782 17.0358 111.446 16.8927C111.113 16.7497 110.822 16.5351 110.571 16.2491C110.321 15.963 110.126 15.6054 109.987 15.1763C109.847 14.7436 109.777 14.2376 109.777 13.6583ZM112.513 16.0667C112.921 16.0667 113.248 15.9344 113.495 15.6697C113.745 15.4016 113.87 14.9921 113.87 14.4414C113.87 13.9944 113.759 13.6404 113.538 13.3794C113.319 13.1183 112.99 12.9878 112.551 12.9878C112.25 12.9878 111.987 13.0522 111.762 13.1809C111.537 13.3096 111.362 13.4723 111.236 13.669C111.115 13.8657 111.054 14.0659 111.054 14.2698C111.054 14.4772 111.084 14.6864 111.145 14.8973C111.206 15.1083 111.297 15.3032 111.419 15.482C111.54 15.6572 111.692 15.7985 111.875 15.9058C112.057 16.013 112.27 16.0667 112.513 16.0667ZM116.064 13.6583C116.064 13.197 116.096 12.7428 116.161 12.2958C116.228 11.8489 116.343 11.4305 116.504 11.0407C116.665 10.6509 116.886 10.3076 117.169 10.0108C117.455 9.71402 117.814 9.48158 118.247 9.31351C118.68 9.14187 119.2 9.05604 119.808 9.05604C119.965 9.05604 120.142 9.0632 120.339 9.0775C120.536 9.0918 120.698 9.11505 120.827 9.14723V10.1932C120.688 10.1539 120.534 10.1235 120.366 10.102C120.201 10.0806 120.037 10.0698 119.872 10.0698C119.214 10.0698 118.701 10.195 118.333 10.4453C117.965 10.692 117.702 11.0318 117.544 11.4644C117.387 11.8936 117.296 12.3852 117.271 12.9395H117.335C117.442 12.7607 117.577 12.6016 117.737 12.4621C117.898 12.3227 118.095 12.2118 118.328 12.1296C118.56 12.0437 118.83 12.0008 119.137 12.0008C119.595 12.0008 119.994 12.0974 120.334 12.2905C120.673 12.48 120.934 12.7554 121.117 13.1165C121.303 13.4777 121.396 13.9157 121.396 14.4307C121.396 14.985 121.29 15.4623 121.079 15.8629C120.872 16.2634 120.575 16.5709 120.189 16.7854C119.806 17 119.35 17.1073 118.821 17.1073C118.431 17.1073 118.068 17.0358 117.732 16.8927C117.4 16.7497 117.108 16.5351 116.858 16.2491C116.607 15.963 116.413 15.6054 116.273 15.1763C116.134 14.7436 116.064 14.2376 116.064 13.6583ZM118.8 16.0667C119.207 16.0667 119.534 15.9344 119.781 15.6697C120.031 15.4016 120.157 14.9921 120.157 14.4414C120.157 13.9944 120.046 13.6404 119.824 13.3794C119.606 13.1183 119.277 12.9878 118.837 12.9878C118.537 12.9878 118.274 13.0522 118.049 13.1809C117.823 13.3096 117.648 13.4723 117.523 13.669C117.401 13.8657 117.341 14.0659 117.341 14.2698C117.341 14.4772 117.371 14.6864 117.432 14.8973C117.493 15.1083 117.584 15.3032 117.705 15.482C117.827 15.6572 117.979 15.7985 118.161 15.9058C118.344 16.013 118.556 16.0667 118.8 16.0667ZM130.504 13.0736C130.504 13.7066 130.454 14.2733 130.353 14.774C130.257 15.271 130.103 15.693 129.892 16.0399C129.681 16.3867 129.406 16.6513 129.066 16.8337C128.726 17.0161 128.315 17.1073 127.832 17.1073C127.228 17.1073 126.729 16.9481 126.336 16.6299C125.942 16.3081 125.651 15.8468 125.462 15.246C125.272 14.6417 125.177 13.9175 125.177 13.0736C125.177 12.2297 125.263 11.5074 125.435 10.9066C125.61 10.3023 125.892 9.83918 126.282 9.51734C126.672 9.19551 127.189 9.03459 127.832 9.03459C128.44 9.03459 128.941 9.19551 129.334 9.51734C129.731 9.8356 130.024 10.2969 130.214 10.9012C130.407 11.502 130.504 12.2261 130.504 13.0736ZM126.448 13.0736C126.448 13.7352 126.491 14.2876 126.577 14.7311C126.667 15.1745 126.813 15.507 127.017 15.7288C127.221 15.9469 127.493 16.056 127.832 16.056C128.172 16.056 128.444 15.9469 128.648 15.7288C128.852 15.5106 128.998 15.1798 129.088 14.7364C129.181 14.293 129.227 13.7387 129.227 13.0736C129.227 12.4156 129.182 11.8649 129.093 11.4215C129.003 10.9781 128.857 10.6456 128.653 10.4238C128.449 10.1986 128.176 10.0859 127.832 10.0859C127.489 10.0859 127.216 10.1986 127.012 10.4238C126.811 10.6456 126.667 10.9781 126.577 11.4215C126.491 11.8649 126.448 12.4156 126.448 13.0736ZM136.79 13.0736C136.79 13.7066 136.74 14.2733 136.64 14.774C136.543 15.271 136.39 15.693 136.179 16.0399C135.968 16.3867 135.692 16.6513 135.353 16.8337C135.013 17.0161 134.602 17.1073 134.119 17.1073C133.515 17.1073 133.016 16.9481 132.622 16.6299C132.229 16.3081 131.938 15.8468 131.748 15.246C131.559 14.6417 131.464 13.9175 131.464 13.0736C131.464 12.2297 131.55 11.5074 131.721 10.9066C131.896 10.3023 132.179 9.83918 132.569 9.51734C132.958 9.19551 133.475 9.03459 134.119 9.03459C134.727 9.03459 135.227 9.19551 135.621 9.51734C136.018 9.8356 136.311 10.2969 136.5 10.9012C136.694 11.502 136.79 12.2261 136.79 13.0736ZM132.735 13.0736C132.735 13.7352 132.778 14.2876 132.864 14.7311C132.953 15.1745 133.1 15.507 133.304 15.7288C133.507 15.9469 133.779 16.056 134.119 16.056C134.459 16.056 134.73 15.9469 134.934 15.7288C135.138 15.5106 135.285 15.1798 135.374 14.7364C135.467 14.293 135.513 13.7387 135.513 13.0736C135.513 12.4156 135.469 11.8649 135.379 11.4215C135.29 10.9781 135.143 10.6456 134.94 10.4238C134.736 10.1986 134.462 10.0859 134.119 10.0859C133.776 10.0859 133.502 10.1986 133.298 10.4238C133.098 10.6456 132.953 10.9781 132.864 11.4215C132.778 11.8649 132.735 12.4156 132.735 13.0736ZM146.215 15.2782H145.152V17H143.908V15.2782H140.341V14.3234L143.924 9.1365H145.152V14.2322H146.215V15.2782ZM143.908 14.2322V12.2851C143.908 12.1242 143.91 11.9615 143.913 11.797C143.921 11.6289 143.928 11.468 143.935 11.3143C143.942 11.1605 143.949 11.0192 143.956 10.8905C143.963 10.7582 143.969 10.6491 143.972 10.5633H143.929C143.862 10.7063 143.786 10.853 143.704 11.0031C143.622 11.1498 143.534 11.2928 143.441 11.4323L141.51 14.2322H143.908ZM152.501 15.2782H151.439V17H150.195V15.2782H146.628V14.3234L150.211 9.1365H151.439V14.2322H152.501V15.2782ZM150.195 14.2322V12.2851C150.195 12.1242 150.196 11.9615 150.2 11.797C150.207 11.6289 150.214 11.468 150.221 11.3143C150.229 11.1605 150.236 11.0192 150.243 10.8905C150.25 10.7582 150.255 10.6491 150.259 10.5633H150.216C150.148 10.7063 150.073 10.853 149.991 11.0031C149.908 11.1498 149.821 11.2928 149.728 11.4323L147.797 14.2322H150.195Z" fill="black"/>
<circle cx="157.883" cy="12.9999" r="1.22059" fill="black"/>
<path d="M163.506 13.9908C163.506 13.3901 163.563 12.8036 163.678 12.2315C163.796 11.6593 163.974 11.114 164.214 10.5955C164.454 10.077 164.756 9.5978 165.121 9.15796H166.22C165.709 9.84096 165.323 10.5973 165.062 11.4269C164.804 12.2565 164.675 13.1076 164.675 13.9801C164.675 14.5487 164.733 15.1119 164.847 15.6697C164.961 16.2276 165.133 16.764 165.362 17.2789C165.591 17.7974 165.873 18.2838 166.209 18.7379H165.121C164.756 18.3088 164.454 17.8403 164.214 17.3326C163.974 16.8248 163.796 16.2884 163.678 15.7234C163.563 15.1584 163.506 14.5809 163.506 13.9908ZM172.356 13.0736C172.356 13.7066 172.306 14.2733 172.206 14.774C172.11 15.271 171.956 15.693 171.745 16.0399C171.534 16.3867 171.259 16.6513 170.919 16.8337C170.579 17.0161 170.168 17.1073 169.685 17.1073C169.081 17.1073 168.582 16.9481 168.189 16.6299C167.795 16.3081 167.504 15.8468 167.314 15.246C167.125 14.6417 167.03 13.9175 167.03 13.0736C167.03 12.2297 167.116 11.5074 167.288 10.9066C167.463 10.3023 167.745 9.83918 168.135 9.51734C168.525 9.19551 169.042 9.03459 169.685 9.03459C170.293 9.03459 170.794 9.19551 171.187 9.51734C171.584 9.8356 171.877 10.2969 172.067 10.9012C172.26 11.502 172.356 12.2261 172.356 13.0736ZM168.301 13.0736C168.301 13.7352 168.344 14.2876 168.43 14.7311C168.519 15.1745 168.666 15.507 168.87 15.7288C169.074 15.9469 169.346 16.056 169.685 16.056C170.025 16.056 170.297 15.9469 170.501 15.7288C170.704 15.5106 170.851 15.1798 170.94 14.7364C171.033 14.293 171.08 13.7387 171.08 13.0736C171.08 12.4156 171.035 11.8649 170.946 11.4215C170.856 10.9781 170.71 10.6456 170.506 10.4238C170.302 10.1986 170.029 10.0859 169.685 10.0859C169.342 10.0859 169.068 10.1986 168.865 10.4238C168.664 10.6456 168.519 10.9781 168.43 11.4215C168.344 11.8649 168.301 12.4156 168.301 13.0736ZM173.343 13.6583C173.343 13.197 173.376 12.7428 173.44 12.2958C173.508 11.8489 173.622 11.4305 173.783 11.0407C173.944 10.6509 174.166 10.3076 174.448 10.0108C174.734 9.71402 175.094 9.48158 175.527 9.31351C175.959 9.14187 176.48 9.05604 177.087 9.05604C177.245 9.05604 177.422 9.0632 177.618 9.0775C177.815 9.0918 177.978 9.11505 178.107 9.14723V10.1932C177.967 10.1539 177.813 10.1235 177.645 10.102C177.481 10.0806 177.316 10.0698 177.152 10.0698C176.494 10.0698 175.981 10.195 175.612 10.4453C175.244 10.692 174.981 11.0318 174.824 11.4644C174.667 11.8936 174.575 12.3852 174.55 12.9395H174.615C174.722 12.7607 174.856 12.6016 175.017 12.4621C175.178 12.3227 175.375 12.2118 175.607 12.1296C175.839 12.0437 176.109 12.0008 176.417 12.0008C176.875 12.0008 177.273 12.0974 177.613 12.2905C177.953 12.48 178.214 12.7554 178.396 13.1165C178.582 13.4777 178.675 13.9157 178.675 14.4307C178.675 14.985 178.57 15.4623 178.359 15.8629C178.151 16.2634 177.854 16.5709 177.468 16.7854C177.086 17 176.63 17.1073 176.1 17.1073C175.711 17.1073 175.348 17.0358 175.012 16.8927C174.679 16.7497 174.388 16.5351 174.137 16.2491C173.887 15.963 173.692 15.6054 173.553 15.1763C173.413 14.7436 173.343 14.2376 173.343 13.6583ZM176.079 16.0667C176.487 16.0667 176.814 15.9344 177.061 15.6697C177.311 15.4016 177.436 14.9921 177.436 14.4414C177.436 13.9944 177.325 13.6404 177.104 13.3794C176.885 13.1183 176.556 12.9878 176.117 12.9878C175.816 12.9878 175.553 13.0522 175.328 13.1809C175.103 13.3096 174.928 13.4723 174.802 13.669C174.681 13.8657 174.62 14.0659 174.62 14.2698C174.62 14.4772 174.65 14.6864 174.711 14.8973C174.772 15.1083 174.863 15.3032 174.985 15.482C175.106 15.6572 175.258 15.7985 175.441 15.9058C175.623 16.013 175.836 16.0667 176.079 16.0667ZM180.515 17L183.594 10.2629H179.523V9.15796H184.951V10.0215L181.872 17H180.515ZM188.454 13.9855C188.454 14.5791 188.396 15.1584 188.282 15.7234C188.167 16.2884 187.99 16.8248 187.751 17.3326C187.515 17.8403 187.211 18.3088 186.839 18.7379H185.755C186.092 18.2838 186.374 17.7974 186.603 17.2789C186.832 16.7604 187.004 16.2222 187.118 15.6644C187.232 15.1065 187.29 14.5433 187.29 13.9748C187.29 13.3955 187.231 12.8233 187.113 12.2583C186.998 11.6933 186.826 11.1498 186.598 10.6277C186.369 10.102 186.084 9.6121 185.745 9.15796H186.839C187.211 9.5978 187.515 10.077 187.751 10.5955C187.99 11.114 188.167 11.6593 188.282 12.2315C188.396 12.8001 188.454 13.3847 188.454 13.9855ZM197.556 17H192.246V16.0506L194.279 13.9908C194.672 13.5903 194.996 13.2453 195.25 12.9556C195.504 12.6624 195.691 12.3852 195.813 12.1242C195.938 11.8632 196.001 11.5789 196.001 11.2713C196.001 10.8923 195.892 10.6062 195.673 10.4131C195.455 10.2164 195.167 10.1181 194.81 10.1181C194.47 10.1181 194.155 10.186 193.866 10.3219C193.58 10.4542 193.283 10.6438 192.975 10.8905L192.283 10.0591C192.502 9.87315 192.734 9.70329 192.981 9.54952C193.231 9.39576 193.51 9.27418 193.817 9.18478C194.125 9.0918 194.475 9.04532 194.869 9.04532C195.366 9.04532 195.795 9.13472 196.156 9.31351C196.517 9.48873 196.794 9.73369 196.988 10.0484C197.184 10.3631 197.283 10.7296 197.283 11.148C197.283 11.5699 197.199 11.9597 197.03 12.3173C196.862 12.6749 196.623 13.0289 196.312 13.3794C196.001 13.7262 195.63 14.1035 195.201 14.5111L193.844 15.836V15.895H197.556V17ZM202.239 17H200.973V11.9526C200.973 11.7845 200.975 11.6164 200.978 11.4483C200.982 11.2803 200.985 11.1158 200.989 10.9549C200.996 10.794 201.005 10.6402 201.016 10.4936C200.941 10.5758 200.848 10.6652 200.737 10.7618C200.63 10.8583 200.515 10.9584 200.394 11.0621L199.492 11.7809L198.86 10.9817L201.187 9.15796H202.239V17ZM205.715 17L208.794 10.2629H204.722V9.15796H210.151V10.0215L207.072 17H205.715ZM219.269 13.0736C219.269 13.7066 219.219 14.2733 219.119 14.774C219.022 15.271 218.869 15.693 218.658 16.0399C218.447 16.3867 218.171 16.6513 217.832 16.8337C217.492 17.0161 217.081 17.1073 216.598 17.1073C215.994 17.1073 215.495 16.9481 215.101 16.6299C214.708 16.3081 214.417 15.8468 214.227 15.246C214.038 14.6417 213.943 13.9175 213.943 13.0736C213.943 12.2297 214.029 11.5074 214.2 10.9066C214.376 10.3023 214.658 9.83918 215.048 9.51734C215.438 9.19551 215.954 9.03459 216.598 9.03459C217.206 9.03459 217.707 9.19551 218.1 9.51734C218.497 9.8356 218.79 10.2969 218.98 10.9012C219.173 11.502 219.269 12.2261 219.269 13.0736ZM215.214 13.0736C215.214 13.7352 215.257 14.2876 215.343 14.7311C215.432 15.1745 215.579 15.507 215.783 15.7288C215.987 15.9469 216.258 16.056 216.598 16.056C216.938 16.056 217.209 15.9469 217.413 15.7288C217.617 15.5106 217.764 15.1798 217.853 14.7364C217.946 14.293 217.993 13.7387 217.993 13.0736C217.993 12.4156 217.948 11.8649 217.859 11.4215C217.769 10.9781 217.623 10.6456 217.419 10.4238C217.215 10.1986 216.941 10.0859 216.598 10.0859C216.255 10.0859 215.981 10.1986 215.777 10.4238C215.577 10.6456 215.432 10.9781 215.343 11.4215C215.257 11.8649 215.214 12.4156 215.214 13.0736ZM225.556 13.0736C225.556 13.7066 225.506 14.2733 225.406 14.774C225.309 15.271 225.155 15.693 224.944 16.0399C224.733 16.3867 224.458 16.6513 224.118 16.8337C223.778 17.0161 223.367 17.1073 222.885 17.1073C222.28 17.1073 221.781 16.9481 221.388 16.6299C220.995 16.3081 220.703 15.8468 220.514 15.246C220.324 14.6417 220.229 13.9175 220.229 13.0736C220.229 12.2297 220.315 11.5074 220.487 10.9066C220.662 10.3023 220.945 9.83918 221.334 9.51734C221.724 9.19551 222.241 9.03459 222.885 9.03459C223.492 9.03459 223.993 9.19551 224.386 9.51734C224.783 9.8356 225.077 10.2969 225.266 10.9012C225.459 11.502 225.556 12.2261 225.556 13.0736ZM221.501 13.0736C221.501 13.7352 221.544 14.2876 221.629 14.7311C221.719 15.1745 221.865 15.507 222.069 15.7288C222.273 15.9469 222.545 16.056 222.885 16.056C223.224 16.056 223.496 15.9469 223.7 15.7288C223.904 15.5106 224.05 15.1798 224.14 14.7364C224.233 14.293 224.279 13.7387 224.279 13.0736C224.279 12.4156 224.234 11.8649 224.145 11.4215C224.056 10.9781 223.909 10.6456 223.705 10.4238C223.501 10.1986 223.228 10.0859 222.885 10.0859C222.541 10.0859 222.268 10.1986 222.064 10.4238C221.864 10.6456 221.719 10.9781 221.629 11.4215C221.544 11.8649 221.501 12.4156 221.501 13.0736ZM234.98 15.2782H233.918V17H232.674V15.2782H229.107V14.3234L232.69 9.1365H233.918V14.2322H234.98V15.2782ZM232.674 14.2322V12.2851C232.674 12.1242 232.675 11.9615 232.679 11.797C232.686 11.6289 232.693 11.468 232.7 11.3143C232.708 11.1605 232.715 11.0192 232.722 10.8905C232.729 10.7582 232.734 10.6491 232.738 10.5633H232.695C232.627 10.7063 232.552 10.853 232.47 11.0031C232.388 11.1498 232.3 11.2928 232.207 11.4323L230.276 14.2322H232.674ZM241.267 15.2782H240.205V17H238.96V15.2782H235.393V14.3234L238.976 9.1365H240.205V14.2322H241.267V15.2782ZM238.96 14.2322V12.2851C238.96 12.1242 238.962 11.9615 238.966 11.797C238.973 11.6289 238.98 11.468 238.987 11.3143C238.994 11.1605 239.001 11.0192 239.008 10.8905C239.016 10.7582 239.021 10.6491 239.025 10.5633H238.982C238.914 10.7063 238.839 10.853 238.756 11.0031C238.674 11.1498 238.586 11.2928 238.493 11.4323L236.562 14.2322H238.96Z" fill="black"/>
<rect width="75" height="14" transform="translate(246 6)" fill="#222222"/>
<path d="M261.648 16L261.234 14.6406H259.152L258.738 16H257.434L259.449 10.2656H260.93L262.953 16H261.648ZM260.945 13.625L260.531 12.2969C260.505 12.2083 260.47 12.0951 260.426 11.957C260.384 11.8164 260.341 11.6745 260.297 11.5312C260.255 11.3854 260.221 11.2591 260.195 11.1523C260.169 11.2591 260.133 11.3919 260.086 11.5508C260.042 11.707 259.999 11.8555 259.957 11.9961C259.915 12.1367 259.885 12.237 259.867 12.2969L259.457 13.625H260.945ZM263.676 16V10.2891H264.887V16H263.676ZM269.695 14.4141C269.695 14.7526 269.613 15.0469 269.449 15.2969C269.285 15.5469 269.046 15.7396 268.73 15.875C268.418 16.0104 268.038 16.0781 267.59 16.0781C267.392 16.0781 267.198 16.0651 267.008 16.0391C266.82 16.013 266.639 15.9753 266.465 15.9258C266.293 15.8737 266.129 15.8099 265.973 15.7344V14.6094C266.243 14.7292 266.525 14.8372 266.816 14.9336C267.108 15.0299 267.397 15.0781 267.684 15.0781C267.882 15.0781 268.04 15.0521 268.16 15C268.283 14.9479 268.371 14.8763 268.426 14.7852C268.48 14.694 268.508 14.5898 268.508 14.4727C268.508 14.3294 268.46 14.207 268.363 14.1055C268.267 14.0039 268.134 13.9089 267.965 13.8203C267.798 13.7318 267.609 13.6367 267.398 13.5352C267.266 13.4727 267.121 13.3971 266.965 13.3086C266.809 13.2174 266.66 13.1068 266.52 12.9766C266.379 12.8464 266.263 12.6888 266.172 12.5039C266.083 12.3164 266.039 12.0924 266.039 11.832C266.039 11.4909 266.117 11.1992 266.273 10.957C266.43 10.7148 266.652 10.5299 266.941 10.4023C267.233 10.2721 267.577 10.207 267.973 10.207C268.27 10.207 268.552 10.2422 268.82 10.3125C269.091 10.3802 269.374 10.4792 269.668 10.6094L269.277 11.5508C269.014 11.444 268.779 11.362 268.57 11.3047C268.362 11.2448 268.15 11.2148 267.934 11.2148C267.783 11.2148 267.654 11.2396 267.547 11.2891C267.44 11.3359 267.359 11.4036 267.305 11.4922C267.25 11.5781 267.223 11.6784 267.223 11.793C267.223 11.9284 267.262 12.043 267.34 12.1367C267.421 12.2279 267.54 12.3164 267.699 12.4023C267.861 12.4883 268.061 12.5885 268.301 12.7031C268.592 12.8411 268.841 12.9857 269.047 13.1367C269.255 13.2852 269.415 13.4609 269.527 13.6641C269.639 13.8646 269.695 14.1146 269.695 14.4141ZM274.102 14.4141C274.102 14.7526 274.02 15.0469 273.855 15.2969C273.691 15.5469 273.452 15.7396 273.137 15.875C272.824 16.0104 272.444 16.0781 271.996 16.0781C271.798 16.0781 271.604 16.0651 271.414 16.0391C271.227 16.013 271.046 15.9753 270.871 15.9258C270.699 15.8737 270.535 15.8099 270.379 15.7344V14.6094C270.65 14.7292 270.931 14.8372 271.223 14.9336C271.514 15.0299 271.803 15.0781 272.09 15.0781C272.288 15.0781 272.447 15.0521 272.566 15C272.689 14.9479 272.777 14.8763 272.832 14.7852C272.887 14.694 272.914 14.5898 272.914 14.4727C272.914 14.3294 272.866 14.207 272.77 14.1055C272.673 14.0039 272.54 13.9089 272.371 13.8203C272.204 13.7318 272.016 13.6367 271.805 13.5352C271.672 13.4727 271.527 13.3971 271.371 13.3086C271.215 13.2174 271.066 13.1068 270.926 12.9766C270.785 12.8464 270.669 12.6888 270.578 12.5039C270.49 12.3164 270.445 12.0924 270.445 11.832C270.445 11.4909 270.523 11.1992 270.68 10.957C270.836 10.7148 271.059 10.5299 271.348 10.4023C271.639 10.2721 271.983 10.207 272.379 10.207C272.676 10.207 272.958 10.2422 273.227 10.3125C273.497 10.3802 273.78 10.4792 274.074 10.6094L273.684 11.5508C273.421 11.444 273.185 11.362 272.977 11.3047C272.768 11.2448 272.556 11.2148 272.34 11.2148C272.189 11.2148 272.06 11.2396 271.953 11.2891C271.846 11.3359 271.766 11.4036 271.711 11.4922C271.656 11.5781 271.629 11.6784 271.629 11.793C271.629 11.9284 271.668 12.043 271.746 12.1367C271.827 12.2279 271.947 12.3164 272.105 12.4023C272.267 12.4883 272.467 12.5885 272.707 12.7031C272.999 12.8411 273.247 12.9857 273.453 13.1367C273.661 13.2852 273.822 13.4609 273.934 13.6641C274.046 13.8646 274.102 14.1146 274.102 14.4141ZM274.875 15.4414C274.875 15.1966 274.941 15.0247 275.074 14.9258C275.21 14.8268 275.372 14.7773 275.562 14.7773C275.747 14.7773 275.906 14.8268 276.039 14.9258C276.174 15.0247 276.242 15.1966 276.242 15.4414C276.242 15.6758 276.174 15.8451 276.039 15.9492C275.906 16.0534 275.747 16.1055 275.562 16.1055C275.372 16.1055 275.21 16.0534 275.074 15.9492C274.941 15.8451 274.875 15.6758 274.875 15.4414ZM279.844 11.2148C279.612 11.2148 279.406 11.2604 279.227 11.3516C279.049 11.4401 278.9 11.569 278.777 11.7383C278.658 11.9076 278.566 12.112 278.504 12.3516C278.441 12.5911 278.41 12.8607 278.41 13.1602C278.41 13.5638 278.46 13.9089 278.559 14.1953C278.66 14.4792 278.816 14.6966 279.027 14.8477C279.238 14.9961 279.51 15.0703 279.844 15.0703C280.076 15.0703 280.307 15.0443 280.539 14.9922C280.773 14.9401 281.027 14.8659 281.301 14.7695V15.7852C281.048 15.8893 280.799 15.9635 280.555 16.0078C280.31 16.0547 280.035 16.0781 279.73 16.0781C279.142 16.0781 278.658 15.957 278.277 15.7148C277.9 15.4701 277.62 15.1289 277.438 14.6914C277.255 14.2513 277.164 13.7383 277.164 13.1523C277.164 12.7201 277.223 12.3242 277.34 11.9648C277.457 11.6055 277.629 11.2943 277.855 11.0312C278.082 10.7682 278.362 10.5651 278.695 10.4219C279.029 10.2786 279.411 10.207 279.844 10.207C280.128 10.207 280.411 10.2435 280.695 10.3164C280.982 10.3867 281.255 10.4844 281.516 10.6094L281.125 11.5938C280.911 11.4922 280.697 11.4036 280.48 11.3281C280.264 11.2526 280.052 11.2148 279.844 11.2148ZM287.703 13.1367C287.703 13.5768 287.648 13.9779 287.539 14.3398C287.43 14.6992 287.263 15.0091 287.039 15.2695C286.818 15.5299 286.536 15.7305 286.195 15.8711C285.854 16.0091 285.451 16.0781 284.984 16.0781C284.518 16.0781 284.115 16.0091 283.773 15.8711C283.432 15.7305 283.15 15.5299 282.926 15.2695C282.704 15.0091 282.539 14.6979 282.43 14.3359C282.32 13.974 282.266 13.5716 282.266 13.1289C282.266 12.5378 282.362 12.0234 282.555 11.5859C282.75 11.1458 283.049 10.8047 283.453 10.5625C283.857 10.3203 284.37 10.1992 284.992 10.1992C285.612 10.1992 286.121 10.3203 286.52 10.5625C286.921 10.8047 287.217 11.1458 287.41 11.5859C287.605 12.026 287.703 12.543 287.703 13.1367ZM283.535 13.1367C283.535 13.5352 283.585 13.8789 283.684 14.168C283.785 14.4544 283.943 14.6758 284.156 14.832C284.37 14.9857 284.646 15.0625 284.984 15.0625C285.328 15.0625 285.607 14.9857 285.82 14.832C286.034 14.6758 286.189 14.4544 286.285 14.168C286.384 13.8789 286.434 13.5352 286.434 13.1367C286.434 12.5378 286.322 12.0664 286.098 11.7227C285.874 11.3789 285.505 11.207 284.992 11.207C284.651 11.207 284.372 11.2852 284.156 11.4414C283.943 11.5951 283.785 11.8164 283.684 12.1055C283.585 12.3919 283.535 12.7357 283.535 13.1367ZM291.305 16L289.93 11.5195H289.895C289.9 11.6263 289.908 11.7878 289.918 12.0039C289.931 12.2174 289.943 12.4453 289.953 12.6875C289.964 12.9297 289.969 13.1484 289.969 13.3438V16H288.887V10.2891H290.535L291.887 14.6562H291.91L293.344 10.2891H294.992V16H293.863V13.2969C293.863 13.1172 293.866 12.9102 293.871 12.6758C293.879 12.4414 293.888 12.2188 293.898 12.0078C293.909 11.7943 293.917 11.6341 293.922 11.5273H293.887L292.414 16H291.305ZM296.172 15.4414C296.172 15.1966 296.238 15.0247 296.371 14.9258C296.507 14.8268 296.669 14.7773 296.859 14.7773C297.044 14.7773 297.203 14.8268 297.336 14.9258C297.471 15.0247 297.539 15.1966 297.539 15.4414C297.539 15.6758 297.471 15.8451 297.336 15.9492C297.203 16.0534 297.044 16.1055 296.859 16.1055C296.669 16.1055 296.507 16.0534 296.371 15.9492C296.238 15.8451 296.172 15.6758 296.172 15.4414ZM303.363 10.2891V13.9844C303.363 14.3776 303.276 14.7331 303.102 15.0508C302.93 15.3659 302.668 15.6159 302.316 15.8008C301.967 15.9857 301.527 16.0781 300.996 16.0781C300.241 16.0781 299.665 15.8854 299.27 15.5C298.874 15.1146 298.676 14.6042 298.676 13.9688V10.2891H299.883V13.7852C299.883 14.2565 299.979 14.5872 300.172 14.7773C300.365 14.9674 300.65 15.0625 301.027 15.0625C301.293 15.0625 301.508 15.0169 301.672 14.9258C301.839 14.8346 301.961 14.694 302.039 14.5039C302.117 14.3138 302.156 14.0716 302.156 13.7773V10.2891H303.363ZM308.258 16L307.844 14.6406H305.762L305.348 16H304.043L306.059 10.2656H307.539L309.562 16H308.258ZM307.555 13.625L307.141 12.2969C307.115 12.2083 307.079 12.0951 307.035 11.957C306.993 11.8164 306.951 11.6745 306.906 11.5312C306.865 11.3854 306.831 11.2591 306.805 11.1523C306.779 11.2591 306.742 11.3919 306.695 11.5508C306.651 11.707 306.608 11.8555 306.566 11.9961C306.525 12.1367 306.495 12.237 306.477 12.2969L306.066 13.625H307.555Z" fill="white"/>
<path d="M73.8804 27.7314H82.9893C86.8864 27.7314 89.8359 28.2786 91.8379 29.373C93.8398 30.4674 94.8408 32.3893 94.8408 35.1387C94.8408 36.2464 94.6606 37.2474 94.3003 38.1416C93.9533 39.0358 93.4461 39.7699 92.7788 40.3438C92.1115 40.9176 91.2974 41.2913 90.3364 41.4648V41.665C91.3107 41.8652 92.1916 42.2122 92.979 42.7061C93.7664 43.1865 94.3937 43.8939 94.8608 44.8281C95.3413 45.749 95.5815 46.9769 95.5815 48.5117C95.5815 50.2868 95.1478 51.8083 94.2803 53.0762C93.4128 54.3441 92.1715 55.3184 90.5566 55.999C88.9551 56.6663 87.0465 57 84.8311 57H73.8804V27.7314ZM80.0864 39.3228H83.6899C85.4917 39.3228 86.7396 39.0425 87.4336 38.4819C88.1276 37.908 88.4746 37.0672 88.4746 35.9595C88.4746 34.8384 88.0609 34.0376 87.2334 33.5571C86.4193 33.0633 85.1247 32.8164 83.3496 32.8164H80.0864V39.3228ZM80.0864 44.2476V51.875H84.1304C85.9989 51.875 87.3001 51.5146 88.0342 50.7939C88.7682 50.0732 89.1353 49.1056 89.1353 47.8911C89.1353 47.1704 88.9751 46.5365 88.6548 45.9893C88.3345 45.4421 87.7939 45.015 87.0332 44.708C86.2858 44.401 85.2515 44.2476 83.9302 44.2476H80.0864ZM127.993 42.3257C127.993 44.5812 127.713 46.6366 127.152 48.4917C126.592 50.3335 125.738 51.9217 124.59 53.2563C123.455 54.591 122.014 55.6187 120.266 56.3394C118.517 57.0467 116.449 57.4004 114.06 57.4004C111.671 57.4004 109.602 57.0467 107.854 56.3394C106.105 55.6187 104.657 54.591 103.509 53.2563C102.375 51.9217 101.527 50.3268 100.967 48.4717C100.406 46.6165 100.126 44.5545 100.126 42.2856C100.126 39.256 100.62 36.6201 101.607 34.3779C102.608 32.1224 104.143 30.374 106.212 29.1328C108.281 27.8916 110.91 27.271 114.1 27.271C117.276 27.271 119.885 27.8916 121.927 29.1328C123.983 30.374 125.504 32.1224 126.492 34.3779C127.493 36.6335 127.993 39.2827 127.993 42.3257ZM106.632 42.3257C106.632 44.3677 106.886 46.1294 107.393 47.6108C107.914 49.0789 108.721 50.2134 109.815 51.0142C110.91 51.8016 112.325 52.1953 114.06 52.1953C115.821 52.1953 117.249 51.8016 118.344 51.0142C119.438 50.2134 120.232 49.0789 120.726 47.6108C121.233 46.1294 121.487 44.3677 121.487 42.3257C121.487 39.256 120.913 36.8403 119.765 35.0786C118.617 33.3169 116.729 32.436 114.1 32.436C112.351 32.436 110.923 32.8364 109.815 33.6372C108.721 34.4246 107.914 35.5591 107.393 37.0405C106.886 38.5086 106.632 40.2703 106.632 42.3257ZM143.408 27.7314C147.185 27.7314 149.941 28.5456 151.676 30.1738C153.411 31.7887 154.279 34.0176 154.279 36.8604C154.279 38.1416 154.085 39.3695 153.698 40.5439C153.311 41.7051 152.677 42.7394 151.796 43.647C150.929 44.5545 149.768 45.2752 148.313 45.8091C146.858 46.3296 145.063 46.5898 142.928 46.5898H140.265V57H134.059V27.7314H143.408ZM143.088 32.8164H140.265V41.5049H142.307C143.468 41.5049 144.476 41.3514 145.33 41.0444C146.184 40.7375 146.845 40.257 147.312 39.603C147.779 38.9491 148.013 38.1082 148.013 37.0806C148.013 35.6392 147.612 34.5715 146.812 33.8774C146.011 33.1701 144.77 32.8164 143.088 32.8164ZM186.37 42.3257C186.37 44.5812 186.09 46.6366 185.529 48.4917C184.969 50.3335 184.115 51.9217 182.967 53.2563C181.832 54.591 180.391 55.6187 178.643 56.3394C176.894 57.0467 174.826 57.4004 172.437 57.4004C170.048 57.4004 167.979 57.0467 166.23 56.3394C164.482 55.6187 163.034 54.591 161.886 53.2563C160.752 51.9217 159.904 50.3268 159.344 48.4717C158.783 46.6165 158.503 44.5545 158.503 42.2856C158.503 39.256 158.997 36.6201 159.984 34.3779C160.985 32.1224 162.52 30.374 164.589 29.1328C166.658 27.8916 169.287 27.271 172.477 27.271C175.653 27.271 178.262 27.8916 180.304 29.1328C182.36 30.374 183.881 32.1224 184.869 34.3779C185.87 36.6335 186.37 39.2827 186.37 42.3257ZM165.009 42.3257C165.009 44.3677 165.263 46.1294 165.77 47.6108C166.291 49.0789 167.098 50.2134 168.192 51.0142C169.287 51.8016 170.701 52.1953 172.437 52.1953C174.198 52.1953 175.626 51.8016 176.721 51.0142C177.815 50.2134 178.609 49.0789 179.103 47.6108C179.61 46.1294 179.864 44.3677 179.864 42.3257C179.864 39.256 179.29 36.8403 178.142 35.0786C176.994 33.3169 175.106 32.436 172.477 32.436C170.728 32.436 169.3 32.8364 168.192 33.6372C167.098 34.4246 166.291 35.5591 165.77 37.0405C165.263 38.5086 165.009 40.2703 165.009 42.3257ZM203.727 57H197.521V32.8965H189.573V27.7314H211.675V32.8965H203.727V57ZM234.097 57L231.975 50.0332H221.304L219.182 57H212.496L222.826 27.6113H230.413L240.783 57H234.097ZM230.493 44.8281L228.371 38.0215C228.238 37.5677 228.057 36.9871 227.831 36.2798C227.617 35.5591 227.397 34.8317 227.17 34.0977C226.956 33.3503 226.783 32.703 226.649 32.1558C226.516 32.703 226.329 33.3836 226.089 34.1978C225.862 34.9985 225.642 35.7593 225.428 36.48C225.215 37.2007 225.061 37.7145 224.968 38.0215L222.866 44.8281H230.493Z" fill="#E30613"/>
<path d="M255.528 28.5187V37.1504H256.926V42.0541H254.782V39H248.215V42.0541H246.072V37.1504H246.882C247.154 36.6055 247.417 36.0296 247.67 35.4226C247.924 34.8156 248.16 34.1632 248.38 33.4654C248.6 32.7676 248.798 32.0101 248.975 31.1928C249.152 30.3755 249.3 29.4841 249.42 28.5187H255.528ZM253.313 30.3683H251.183C251.112 30.875 251.014 31.415 250.889 31.9886C250.765 32.5621 250.617 33.1476 250.445 33.745C250.278 34.3377 250.089 34.9231 249.879 35.5015C249.673 36.0798 249.453 36.6294 249.219 37.1504H253.313V30.3683ZM266.841 39H264.625V30.3683H262.059C262.002 30.8176 261.939 31.3075 261.873 31.838C261.806 32.3685 261.736 32.9038 261.665 33.4439C261.593 33.984 261.516 34.4978 261.435 34.9853C261.359 35.4728 261.282 35.9005 261.206 36.2686C261.082 36.8803 260.912 37.4013 260.697 37.8314C260.486 38.2568 260.197 38.5818 259.829 38.8064C259.466 39.0311 258.991 39.1434 258.403 39.1434C258.207 39.1434 258.018 39.129 257.836 39.1004C257.659 39.0717 257.495 39.0335 257.342 38.9857V37.1647C257.466 37.2077 257.59 37.2436 257.714 37.2722C257.839 37.2961 257.975 37.3081 258.123 37.3081C258.314 37.3081 258.472 37.2459 258.596 37.1217C258.725 36.9926 258.84 36.7752 258.94 36.4693C259.041 36.1586 259.141 35.7309 259.241 35.186C259.284 34.947 259.342 34.6101 259.413 34.1752C259.485 33.7354 259.566 33.2217 259.657 32.6338C259.748 32.0411 259.841 31.3959 259.937 30.6981C260.037 30.0003 260.133 29.2738 260.224 28.5187H266.841V39ZM273.013 34.9781L270.562 39H268.095L271.078 34.3902C270.796 34.2707 270.511 34.0963 270.225 33.8669C269.943 33.6375 269.708 33.3316 269.522 32.9492C269.336 32.5621 269.242 32.0842 269.242 31.5154C269.242 30.5452 269.589 29.8044 270.282 29.293C270.975 28.7768 271.948 28.5187 273.2 28.5187H276.612V39H274.39V34.9781H273.013ZM274.39 30.3397H273.293C272.911 30.3397 272.583 30.3851 272.311 30.4759C272.043 30.5667 271.838 30.7101 271.694 30.906C271.556 31.0972 271.486 31.3529 271.486 31.6731C271.486 32.1367 271.639 32.5024 271.945 32.77C272.251 33.0376 272.719 33.1715 273.35 33.1715H274.39V30.3397ZM283.065 28.5187H286.327C287.722 28.5187 288.778 28.7146 289.495 29.1066C290.212 29.4985 290.571 30.1867 290.571 31.1713C290.571 31.568 290.506 31.9264 290.377 32.2467C290.253 32.5669 290.071 32.8297 289.832 33.0353C289.593 33.2408 289.302 33.3746 288.958 33.4367V33.5084C289.306 33.5801 289.622 33.7044 289.904 33.8812C290.186 34.0533 290.411 34.3066 290.578 34.6412C290.75 34.9709 290.836 35.4106 290.836 35.9603C290.836 36.5959 290.681 37.1408 290.37 37.5948C290.059 38.0489 289.615 38.3978 289.036 38.6415C288.463 38.8805 287.779 39 286.986 39H283.065V28.5187ZM285.287 32.6696H286.577C287.223 32.6696 287.67 32.5693 287.918 32.3685C288.167 32.163 288.291 31.8619 288.291 31.4652C288.291 31.0637 288.143 30.777 287.846 30.6049C287.555 30.4281 287.091 30.3397 286.456 30.3397H285.287V32.6696ZM285.287 34.4332V37.1647H286.735C287.404 37.1647 287.87 37.0357 288.133 36.7776C288.396 36.5195 288.527 36.173 288.527 35.738C288.527 35.4799 288.47 35.2529 288.355 35.057C288.241 34.861 288.047 34.7081 287.775 34.5981C287.507 34.4882 287.137 34.4332 286.663 34.4332H285.287ZM297.381 30.2178C296.956 30.2178 296.578 30.3014 296.249 30.4687C295.924 30.6312 295.649 30.8678 295.424 31.1784C295.204 31.4891 295.037 31.8643 294.922 32.304C294.808 32.7437 294.75 33.2384 294.75 33.788C294.75 34.5288 294.841 35.1621 295.023 35.6878C295.209 36.2088 295.496 36.6079 295.883 36.8851C296.27 37.1575 296.77 37.2937 297.381 37.2937C297.807 37.2937 298.232 37.2459 298.657 37.1504C299.088 37.0548 299.554 36.9186 300.055 36.7417V38.6057C299.592 38.7969 299.135 38.9331 298.686 39.0143C298.237 39.1004 297.733 39.1434 297.173 39.1434C296.093 39.1434 295.204 38.9211 294.507 38.4767C293.814 38.0274 293.3 37.4013 292.965 36.5983C292.631 35.7906 292.463 34.8491 292.463 33.7737C292.463 32.9803 292.571 32.2538 292.786 31.5943C293.001 30.9347 293.316 30.3636 293.732 29.8808C294.148 29.3981 294.662 29.0253 295.274 28.7624C295.885 28.4996 296.588 28.3681 297.381 28.3681C297.902 28.3681 298.423 28.435 298.944 28.5689C299.47 28.6979 299.972 28.8771 300.45 29.1066L299.733 30.9132C299.341 30.7268 298.947 30.5643 298.55 30.4257C298.153 30.2871 297.764 30.2178 297.381 30.2178ZM302.292 39V28.5187H304.515V39H302.292ZM311.87 30.2178C311.474 30.2178 311.108 30.2751 310.773 30.3898C310.439 30.4998 310.145 30.667 309.892 30.8917C309.643 31.1115 309.445 31.3816 309.297 31.7018C309.148 32.022 309.06 32.39 309.031 32.8058H313.569V34.6268H309.017C309.046 35.0522 309.127 35.4298 309.261 35.7595C309.399 36.0893 309.588 36.3689 309.827 36.5983C310.071 36.8277 310.365 37.0022 310.709 37.1217C311.053 37.2364 311.45 37.2937 311.899 37.2937C312.367 37.2937 312.838 37.2459 313.311 37.1504C313.789 37.0548 314.308 36.9186 314.867 36.7417V38.6057C314.365 38.7969 313.873 38.9331 313.39 39.0143C312.907 39.1004 312.365 39.1434 311.763 39.1434C310.601 39.1434 309.645 38.9211 308.895 38.4767C308.145 38.0274 307.588 37.4013 307.225 36.5983C306.866 35.7906 306.687 34.8491 306.687 33.7737C306.687 32.9803 306.802 32.2538 307.031 31.5943C307.26 30.9347 307.6 30.3636 308.049 29.8808C308.498 29.3981 309.05 29.0253 309.705 28.7624C310.365 28.4996 311.12 28.3681 311.971 28.3681C312.597 28.3681 313.173 28.435 313.698 28.5689C314.224 28.6979 314.745 28.8771 315.261 29.1066L314.465 30.9132C314.031 30.7268 313.615 30.5643 313.218 30.4257C312.826 30.2871 312.377 30.2178 311.87 30.2178ZM317.089 39V28.5187H319.312V39H317.089ZM315.742 26.4611C315.742 26.1218 315.837 25.8757 316.028 25.7227C316.224 25.5698 316.461 25.4933 316.738 25.4933C317.011 25.4933 317.247 25.5698 317.448 25.7227C317.649 25.8757 317.749 26.1218 317.749 26.4611C317.749 26.7814 317.649 27.0203 317.448 27.1781C317.247 27.3358 317.011 27.4146 316.738 27.4146C316.461 27.4146 316.224 27.3358 316.028 27.1781C315.837 27.0203 315.742 26.7814 315.742 26.4611ZM318.631 26.4611C318.631 26.1218 318.726 25.8757 318.918 25.7227C319.113 25.5698 319.355 25.4933 319.642 25.4933C319.914 25.4933 320.151 25.5698 320.351 25.7227C320.557 25.8757 320.66 26.1218 320.66 26.4611C320.66 26.7814 320.557 27.0203 320.351 27.1781C320.151 27.3358 319.914 27.4146 319.642 27.4146C319.355 27.4146 319.113 27.3358 318.918 27.1781C318.726 27.0203 318.631 26.7814 318.631 26.4611Z" fill="#E30613"/>
<path d="M256.817 44.3541L253.209 52.5907C252.885 53.3341 252.54 53.974 252.173 54.5104C251.807 55.0415 251.342 55.4504 250.779 55.7371C250.217 56.0186 249.478 56.1593 248.565 56.1593C248.278 56.1593 247.968 56.1381 247.633 56.0956C247.298 56.0584 246.988 56 246.701 55.9203V53.8015C246.967 53.9024 247.253 53.9767 247.561 54.0245C247.875 54.067 248.169 54.0882 248.445 54.0882C248.807 54.0882 249.099 54.0272 249.322 53.905C249.545 53.7829 249.723 53.6182 249.855 53.4111C249.988 53.204 250.1 52.973 250.19 52.7181L246.159 44.3541H248.772L250.947 49.3964C250.995 49.5026 251.056 49.646 251.13 49.8266C251.21 50.0018 251.287 50.1824 251.361 50.3682C251.441 50.5488 251.502 50.7081 251.544 50.8462H251.632C251.674 50.7134 251.73 50.5541 251.799 50.3682C251.873 50.1771 251.95 49.9832 252.03 49.7867C252.11 49.5849 252.181 49.4044 252.245 49.2451L254.268 44.3541H256.817ZM267.778 56H264.974L260.753 50.0974V56H258.283V44.3541H260.753V49.9938L264.927 44.3541H267.555L263.31 49.946L267.778 56ZM272.964 44.3541C274.467 44.3541 275.563 44.678 276.254 45.3259C276.944 45.9685 277.289 46.8553 277.289 47.9865C277.289 48.4963 277.212 48.9848 277.058 49.4522C276.904 49.9142 276.652 50.3257 276.302 50.6869C275.956 51.048 275.494 51.3347 274.916 51.5472C274.337 51.7543 273.622 51.8578 272.773 51.8578H271.713V56H269.244V44.3541H272.964ZM272.837 46.3774H271.713V49.8345H272.526C272.988 49.8345 273.389 49.7735 273.729 49.6513C274.069 49.5292 274.331 49.338 274.517 49.0778C274.703 48.8176 274.796 48.483 274.796 48.0741C274.796 47.5006 274.637 47.0757 274.318 46.7996C274 46.5181 273.506 46.3774 272.837 46.3774ZM286.617 56L285.773 53.2279H281.527L280.683 56H278.022L282.133 44.3063H285.152L289.278 56H286.617ZM285.183 51.1568L284.339 48.4485C284.286 48.2679 284.214 48.0369 284.124 47.7555C284.039 47.4687 283.951 47.1793 283.861 46.8872C283.776 46.5898 283.707 46.3323 283.654 46.1145C283.601 46.3323 283.527 46.6031 283.431 46.927C283.341 47.2457 283.253 47.5484 283.168 47.8351C283.083 48.1219 283.022 48.3263 282.985 48.4485L282.148 51.1568H285.183ZM290.751 56V44.3541H293.221V56H290.751ZM289.254 42.0679C289.254 41.6909 289.36 41.4174 289.573 41.2475C289.79 41.0775 290.053 40.9926 290.361 40.9926C290.664 40.9926 290.927 41.0775 291.15 41.2475C291.373 41.4174 291.484 41.6909 291.484 42.0679C291.484 42.4237 291.373 42.6893 291.15 42.8645C290.927 43.0398 290.664 43.1274 290.361 43.1274C290.053 43.1274 289.79 43.0398 289.573 42.8645C289.36 42.6893 289.254 42.4237 289.254 42.0679ZM292.464 42.0679C292.464 41.6909 292.57 41.4174 292.783 41.2475C293 41.0775 293.269 40.9926 293.587 40.9926C293.89 40.9926 294.153 41.0775 294.376 41.2475C294.604 41.4174 294.718 41.6909 294.718 42.0679C294.718 42.4237 294.604 42.6893 294.376 42.8645C294.153 43.0398 293.89 43.1274 293.587 43.1274C293.269 43.1274 293 43.0398 292.783 42.8645C292.57 42.6893 292.464 42.4237 292.464 42.0679ZM305.695 56H303.234V50.9736H298.622V56H296.152V44.3541H298.622V48.9185H303.234V44.3541H305.695V56ZM308.643 44.3541H310.865V49.9779C310.865 50.2541 310.86 50.5594 310.849 50.894C310.844 51.2285 310.833 51.5578 310.817 51.8817C310.807 52.2003 310.796 52.4791 310.785 52.7181C310.775 52.9571 310.764 53.1164 310.753 53.1961H310.801L316.178 44.3541H319.133V56H316.935V50.4081C316.935 50.1107 316.94 49.7867 316.951 49.4362C316.961 49.0857 316.975 48.7459 316.991 48.4166C317.012 48.0874 317.03 47.8033 317.046 47.5643C317.062 47.32 317.073 47.158 317.078 47.0784H317.014L311.614 56H308.643V44.3541Z" fill="#E30613"/>
<rect x="2" y="2" width="66" height="66" stroke="#E30613" stroke-width="2"/>
<mask id="path-23-inside-1_1513_523" fill="white">
<path d="M74 1H324V69H74V1Z"/>
</mask>
<path d="M324 67H74V71H324V67Z" fill="#E30613" mask="url(#path-23-inside-1_1513_523)"/>
<defs>
<linearGradient id="paint0_linear_1513_523" x1="35.1152" y1="33.7942" x2="63.9849" y2="33.7942" gradientUnits="userSpaceOnUse">
<stop stop-color="#BDBAB9"/>
<stop offset="0.02" stop-color="#C7C4C3"/>
<stop offset="0.06" stop-color="#DCDADA"/>
<stop offset="0.11" stop-color="#ECEAEA"/>
<stop offset="0.16" stop-color="#F5F4F3"/>
<stop offset="0.24" stop-color="#F8F7F7"/>
<stop offset="0.25" stop-color="#F8F7F7"/>
<stop offset="0.31" stop-color="#F8F7F7"/>
<stop offset="0.37" stop-color="#F4F3F3"/>
<stop offset="0.44" stop-color="#E8E7E7"/>
<stop offset="0.5" stop-color="#D5D4D4"/>
<stop offset="0.52" stop-color="#CDCBCB"/>
<stop offset="0.81" stop-color="#999594"/>
<stop offset="0.88" stop-color="#8C8887"/>
<stop offset="0.91" stop-color="#807C7B"/>
<stop offset="0.96" stop-color="#625D5B"/>
<stop offset="1" stop-color="#443F3C"/>
</linearGradient>
<linearGradient id="paint1_linear_1513_523" x1="28.0747" y1="35.7442" x2="43.1999" y2="35.7442" gradientUnits="userSpaceOnUse">
<stop stop-color="#BDBAB9"/>
<stop offset="0.02" stop-color="#C7C4C3"/>
<stop offset="0.06" stop-color="#DCDADA"/>
<stop offset="0.11" stop-color="#ECEAEA"/>
<stop offset="0.16" stop-color="#F5F4F3"/>
<stop offset="0.24" stop-color="#F8F7F7"/>
<stop offset="0.25" stop-color="#F8F7F7"/>
<stop offset="0.31" stop-color="#F8F7F7"/>
<stop offset="0.37" stop-color="#F4F3F3"/>
<stop offset="0.44" stop-color="#E8E7E7"/>
<stop offset="0.5" stop-color="#D5D4D4"/>
<stop offset="0.52" stop-color="#CDCBCB"/>
<stop offset="0.81" stop-color="#999594"/>
<stop offset="0.88" stop-color="#8C8887"/>
<stop offset="0.91" stop-color="#807C7B"/>
<stop offset="0.96" stop-color="#625D5B"/>
<stop offset="1" stop-color="#443F3C"/>
</linearGradient>
<linearGradient id="paint2_linear_1513_523" x1="25.3324" y1="29.2853" x2="27.1795" y2="26.8944" gradientUnits="userSpaceOnUse">
<stop stop-color="#BDBAB9"/>
<stop offset="0.12" stop-color="#CBC8C8"/>
<stop offset="0.34" stop-color="#F0EFEF"/>
<stop offset="0.38" stop-color="#F8F7F7"/>
<stop offset="0.41" stop-color="#F8F7F7"/>
<stop offset="0.58" stop-color="#F8F7F7"/>
<stop offset="0.64" stop-color="#F4F3F3"/>
<stop offset="0.71" stop-color="#E8E7E7"/>
<stop offset="0.77" stop-color="#D5D4D4"/>
<stop offset="0.8" stop-color="#CDCBCB"/>
<stop offset="0.96" stop-color="#999594"/>
<stop offset="1" stop-color="#8C8887"/>
</linearGradient>
<linearGradient id="paint3_linear_1513_523" x1="22.4559" y1="41.8795" x2="29.6351" y2="32.5941" gradientUnits="userSpaceOnUse">
<stop stop-color="#A7A4A3"/>
<stop offset="0.09" stop-color="#B9B7B6"/>
<stop offset="0.32" stop-color="#E6E5E5"/>
<stop offset="0.43" stop-color="#F8F7F7"/>
<stop offset="0.49" stop-color="#EFEEEE"/>
<stop offset="0.75" stop-color="#CDCBCB"/>
<stop offset="0.95" stop-color="#999594"/>
<stop offset="1" stop-color="#8C8887"/>
</linearGradient>
<linearGradient id="paint4_linear_1513_523" x1="5.50266" y1="35.5688" x2="22.3012" y2="35.5688" gradientUnits="userSpaceOnUse">
<stop stop-color="#BDBAB9"/>
<stop offset="0.02" stop-color="#C7C4C3"/>
<stop offset="0.06" stop-color="#DCDADA"/>
<stop offset="0.11" stop-color="#ECEAEA"/>
<stop offset="0.16" stop-color="#F5F4F3"/>
<stop offset="0.24" stop-color="#F8F7F7"/>
<stop offset="0.25" stop-color="#F8F7F7"/>
<stop offset="0.31" stop-color="#F8F7F7"/>
<stop offset="0.37" stop-color="#F4F3F3"/>
<stop offset="0.44" stop-color="#E8E7E7"/>
<stop offset="0.5" stop-color="#D5D4D4"/>
<stop offset="0.52" stop-color="#CDCBCB"/>
<stop offset="0.81" stop-color="#999594"/>
<stop offset="0.88" stop-color="#8C8887"/>
<stop offset="0.91" stop-color="#807C7B"/>
<stop offset="0.96" stop-color="#625D5B"/>
<stop offset="1" stop-color="#443F3C"/>
</linearGradient>
</defs>
</svg>
